<svg id="svg_1" data-name="svg 1" xmlns="http://www.w3.org/2000/svg" viewBox="0 0 139.95 150.07"><defs><style>.cls-1{fill:#fff;}.cls-2{fill:#d8d8d8;}.cls-3{fill:#f08901;}.cls-4{fill:#ee8a00;}</style></defs><path class="cls-1" d="M102.1,14.9h0a.27.27,0,0,0-.11-.38h0L79.36,1.57h0a.38.38,0,0,0-.15-.05.31.31,0,0,0-.3.26h0C77.74,6.72,67.19,54.68,84.16,111.9c-6.09-37.53,8.58-78.67,17.94-97"/><path class="cls-1" d="M75.06,149.9h0a68.83,68.83,0,0,0,14.66-2.63h0a.32.32,0,0,0,.19-.28.23.23,0,0,0,0-.13h0C83.82,140.37,74.48,127,68.21,115c3.17,13,6,27.24,6.58,34.71a.31.31,0,0,0,.27.24"/><path class="cls-2" d="M95.1,145.53C63.41,94.5,68.43,22.38,72,.32h0a0,0,0,0,1,0,0A.31.31,0,0,0,71.68,0l-.1,0h0l-35,14.08a.3.3,0,0,0-.22.29s0,0,0,.07h0C42,40.33,56.5,101.63,95.1,145.53"/><path class="cls-2" d="M51.82,147.37h0a.14.14,0,0,0,0,.06.33.33,0,0,0,.2.29,69.76,69.76,0,0,0,17.08,2.35.32.32,0,0,0,.3-.29h0c-.75-12.4-3.61-38-14.15-60.57,3.43,22.94-.33,46.82-3.42,58.16"/><path class="cls-3" d="M43.62,144.9a.3.3,0,0,0,.27-.16h0c.1-.44.29-1.31.39-1.72v0a.43.43,0,0,0,0,0,.31.31,0,0,0-.22-.29h0c-22.84-9.78-38-36.18-38-62.55,0-20.6,8.83-43.07,24-54.78h0a.29.29,0,0,0,.09-.22.09.09,0,0,0,0-.05h0c-.1-.35-.29-1.16-.39-1.68a.31.31,0,0,0-.29-.22.28.28,0,0,0-.18.06A69.93,69.93,0,0,0,43.53,144.89h.09"/><path class="cls-4" d="M108.36,21.63h0a.24.24,0,0,0-.12,0,.32.32,0,0,0-.26.16l-.71,1.53a.37.37,0,0,0,0,.14.29.29,0,0,0,.12.23v0c16.93,11.52,26.53,34.45,26.53,56.42,0,24.48-11.89,49-32.14,59.77h0a.3.3,0,0,0-.1.23.5.5,0,0,0,0,.12h0l.86,1.5h0a.35.35,0,0,0,.24.12.2.2,0,0,0,.14,0,69.92,69.92,0,0,0,5.45-120.18"/></svg>