<svg id="Слой_1" data-name="Слой 1" xmlns="http://www.w3.org/2000/svg" viewBox="0 0 348.72 351.26"><defs><style>.cls-1{fill:#fff;}.cls-2{fill:#8b2c86;}.cls-3{fill:#e31d2c;}.cls-4{fill:#030406;}.cls-5{fill:#135da6;}.cls-6{fill:#ef8d22;}.cls-7{fill:#219ad1;}.cls-8{fill:#fcdc18;}.cls-9{fill:#28a24b;}</style></defs><path class="cls-1" d="M127.15,146.73a56.29,56.29,0,0,1,27.18-19.8c-1.51,1.62-3.05,3.21-4.54,4.84a37,37,0,0,1,18.93,2.33c.65,5.7,1.21,11.41,2,17.08,1.43-5.58,1.54-11.41,2.33-17.1a37.83,37.83,0,0,1,19-2.34c-1.64-1.65-3.31-3.26-5-4.87a53.66,53.66,0,0,1,27.2,19.8q-2.85-1.44-5.73-2.8c2.44,5.73,4.27,11.95,3.54,18.24-4.94,3.06-10.81,4.41-15.56,7.82,5.62-1,11.2-2.26,16.8-3.33a37.94,37.94,0,0,1,8.22,17.25c1.06-1.92,2.09-3.85,3.05-5.82.06,11.46-4,22.55-10.33,32q.5-3.27.9-6.54a40.42,40.42,0,0,1-16.38,9.13c-4.13-4.15-7.78-8.76-12-12.76,2,5.55,6.08,10.12,8,15.64-3.22,5.42-8.2,9.47-13.53,12.7,2,.41,4.09.79,6.13,1.22A74.32,74.32,0,0,1,171.16,232a86.51,86.51,0,0,1-17.08-2.51c2.11-.35,4.17-.9,6.24-1.41a39.2,39.2,0,0,1-13.6-12.91c2.8-5.15,5.93-10.12,8.51-15.38-4.49,3.81-8.11,8.53-12.14,12.8-6.3-1.34-11.63-5.05-16.61-8.92q.51,3.15,1.16,6.29a54.2,54.2,0,0,1-10.55-31.77c1.06,1.87,2,3.79,3.07,5.68a37.07,37.07,0,0,1,8.27-17.3c5.64,1.11,11.23,2.54,16.93,3.31-5-3-10.54-5-15.79-7.55-.53-6.37,1.05-12.67,3.59-18.47-2,.94-4,1.94-6,2.9M147,170.22c2.93,9.52,6.06,19,9.2,28.42,9.85,0,19.69,0,29.54,0q4.56-14.16,9.21-28.3c-7.91-5.93-16-11.59-24-17.49-8.06,5.71-16,11.61-24,17.39Z"/><path class="cls-2" d="M153.86,0h4.29C162.3,21,166,42.09,170,63.11a51.43,51.43,0,0,1,1.25,10.42c-23.44,3.8-45,18.18-56.89,38.81a3,3,0,0,1-4.89,1.41C90,102.54,70.6,91.11,51.1,79.87c-1.18-.94-3.49-1.74-2.62-3.65,1-3,3-5.56,4.72-8.23A154.76,154.76,0,0,1,99.93,21.77C116.33,11.16,134.85,4.22,153.86,0Z"/><path class="cls-3" d="M184.67,17.81a156.18,156.18,0,0,1,108.6,31c2.94,2.38,6.23,4.44,8.66,7.37,1.29,1.57-.51,3.12-1.39,4.32Q280.35,83.75,260.23,107c-1.73,1.91-3.21,4.08-5.23,5.69-2,1.07-3.39-.83-4.83-1.85a79.87,79.87,0,0,0-55.06-18.3c-3.35.11-6.64.9-10,.82a6.77,6.77,0,0,1-1.61-4c-2.87-19.85-5.85-39.68-8.77-59.52-.44-3.28-1.24-6.56-1.06-9.88C176.88,17.91,181,18.44,184.67,17.81Z"/><path class="cls-4" d="M162.7,119.8A58.87,58.87,0,1,1,117.05,202,58.86,58.86,0,0,1,162.7,119.8m-35.55,26.93c2-1,4-2,6-2.9-2.54,5.8-4.12,12.1-3.59,18.47,5.25,2.53,10.78,4.53,15.79,7.55-5.7-.77-11.29-2.2-16.93-3.31a37.07,37.07,0,0,0-8.27,17.3c-1-1.89-2-3.81-3.07-5.68a54.2,54.2,0,0,0,10.55,31.77q-.65-3.13-1.16-6.29c5,3.87,10.31,7.58,16.61,8.92,4-4.27,7.65-9,12.14-12.8-2.58,5.26-5.71,10.23-8.51,15.38a39.2,39.2,0,0,0,13.6,12.91c-2.07.51-4.13,1.06-6.24,1.41A86.51,86.51,0,0,0,171.16,232a74.32,74.32,0,0,0,16.23-2.58c-2-.43-4.09-.81-6.13-1.22,5.33-3.23,10.31-7.28,13.53-12.7-1.91-5.52-6-10.09-8-15.64,4.26,4,7.91,8.61,12,12.76a40.42,40.42,0,0,0,16.38-9.13q-.41,3.27-.9,6.54c6.38-9.42,10.39-20.51,10.33-32-1,2-2,3.9-3.05,5.82a37.94,37.94,0,0,0-8.22-17.25c-5.6,1.07-11.18,2.33-16.8,3.33,4.75-3.41,10.62-4.76,15.56-7.82.73-6.29-1.1-12.51-3.54-18.24q2.88,1.37,5.73,2.8a53.66,53.66,0,0,0-27.2-19.8c1.67,1.61,3.34,3.22,5,4.87a37.83,37.83,0,0,0-19,2.34c-.79,5.69-.9,11.52-2.33,17.1-.81-5.67-1.37-11.38-2-17.08a37,37,0,0,0-18.93-2.33c1.49-1.63,3-3.22,4.54-4.84a56.29,56.29,0,0,0-27.18,19.8Z"/><path class="cls-4" d="M147,170.22c8-5.78,15.94-11.68,24-17.39,7.93,5.9,16,11.56,24,17.49q-4.65,14.15-9.21,28.3c-9.85,0-19.69,0-29.54,0-3.14-9.45-6.27-18.9-9.2-28.42Z"/><path class="cls-5" d="M22.57,78.34c1.2-.75,2.43.39,3.52.81Q56,95.24,85.86,111.24a3,3,0,0,1,1.38,4.8,80,80,0,0,0-3.88,66.74c1.18,1.82-.59,3.5-2.29,4q-28.48,11-57,22c-3,1.09-5.83,2.5-8.92,3.21a3.84,3.84,0,0,1-2-2C-3.31,168.47-.37,119.92,20.65,80.57A4.53,4.53,0,0,1,22.57,78.34Z"/><path class="cls-6" d="M296.57,82.52c2.38-1.43,4.4,1.6,6,3C334,116.35,351.18,161,348.43,204.87l-1.36,1.77c-22.64-.73-45.28-2.2-67.92-3.11-1.88-.25-4.38.17-5.67-1.56-.32-3.3,0-6.61-.18-9.91a80.07,80.07,0,0,0-25.15-54.15c-1.92-1.38-.93-3.9.56-5.15,16-16.68,31.71-33.7,47.86-50.24Z"/><path class="cls-7" d="M63,203.59c1.6-.53,3.43-1.74,5.08-.73a20.14,20.14,0,0,1,1.9,3.4,80,80,0,0,0,41.71,40.27c3,1.35,6.31,2,9.23,3.59.58,1.62,0,3.32-.41,4.9-6.92,22-13.73,44-20.61,66a8.64,8.64,0,0,1-3.65,0c-42-12.82-77.65-44.57-95.45-84.68-.69-1.72-.58-3.62-.75-5.43,20.93-9.22,42-18.14,63-27.33Z"/><path class="cls-8" d="M251.33,212.07c1.76-1,3.82-.59,5.73-.51,22.15,1.84,44.33,3.41,66.47,5.26,1.75-.14,2.75,1.65,2.44,3.22-3.08,44.22-26.42,86.45-62,112.81a33.47,33.47,0,0,1-3.95,2c-13.58-18-26.69-36.41-40.17-54.52-1.21-1.71-2.63-3.37-3.16-5.43.33-1.29,1.59-1.95,2.5-2.78a80.08,80.08,0,0,0,30.69-50c.64-3.34.71-6.77,1.46-10.09Z"/><path class="cls-9" d="M193,262.85a2.75,2.75,0,0,1,4.38.78c12,17.71,23.86,35.54,35.84,53.28a41.46,41.46,0,0,1,3.65,6c-.95,2.57-3.68,3.63-5.77,5.08A155.82,155.82,0,0,1,163,351.11c-9.94-.16-19.91-.28-29.84.15a186.31,186.31,0,0,1-25.67-4.81c-1.41-.26-2.39-1.33-3.44-2.19,6.48-22.78,12.59-45.67,19-68.47a2.77,2.77,0,0,1,4-2.13c22.17,6.3,46.84,2,65.91-10.81Z"/></svg>