<?xml version="1.0" encoding="UTF-8"?>
<svg xmlns="http://www.w3.org/2000/svg" xmlns:xlink="http://www.w3.org/1999/xlink" width="100px" height="96px" viewBox="0 0 100 96" version="1.1">
<g id="surface1">
<path style=" stroke:none;fill-rule:nonzero;fill:rgb(100%,100%,100%);fill-opacity:1;" d="M 50 25.78125 C 55 27.160156 58.734375 27.808594 58.734375 27.808594 C 56.703125 25.773438 54.785156 23.621094 53 21.363281 C 55.90625 17.261719 58.191406 14.421875 58.191406 14.421875 C 55.109375 15.101562 52.191406 15.921875 49.589844 16.789062 C 47.089844 13.234375 45.75 10.730469 45.75 10.730469 C 45.070312 13.296875 44.675781 15.929688 44.566406 18.585938 C 40.421875 20.191406 37.828125 21.503906 37.828125 21.503906 C 40.070312 22.503906 42.394531 23.394531 44.644531 24.15625 C 44.839844 26.917969 45.292969 29.65625 46 32.335938 C 47.253906 30.089844 48.636719 27.863281 50 25.78125 "/>
<path style=" stroke:none;fill-rule:nonzero;fill:rgb(100%,100%,100%);fill-opacity:1;" d="M 72.828125 24.503906 C 72.105469 25.566406 71.082031 26.386719 69.890625 26.863281 C 69.773438 24.707031 69.542969 22.558594 69.199219 20.425781 C 68.265625 22.964844 67.195312 25.453125 66 27.878906 C 63.585938 28.152344 61.144531 28.128906 58.734375 27.808594 C 60.132812 29.5625 61.726562 31.144531 63.484375 32.53125 C 62.519531 34.199219 61.449219 35.800781 60.28125 37.335938 C 62.542969 36.847656 64.683594 35.910156 66.578125 34.585938 C 67.3125 35.066406 67.933594 35.695312 68.40625 36.429688 C 68.40625 36.429688 69.464844 34.929688 69.824219 31.429688 C 71.382812 29.402344 72.414062 27.015625 72.824219 24.488281 "/>
<path style=" stroke:none;fill-rule:nonzero;fill:rgb(100%,100%,100%);fill-opacity:1;" d="M 71.628906 15.039062 C 70.574219 12.660156 68.964844 10.566406 66.941406 8.929688 C 66.140625 7.121094 64.996094 5.488281 63.570312 4.121094 C 63.695312 4.960938 63.613281 5.820312 63.324219 6.621094 C 60.984375 5.457031 58.460938 4.710938 55.863281 4.414062 C 58.074219 5.902344 60.089844 7.660156 61.863281 9.644531 C 60.789062 11.347656 59.554688 12.945312 58.179688 14.421875 C 60.417969 13.894531 62.703125 13.589844 65 13.503906 C 66.605469 15.695312 68.015625 18.019531 69.21875 20.453125 C 69.28125 18.203125 69.066406 15.953125 68.589844 13.753906 C 70.914062 14.195312 71.648438 15.066406 71.648438 15.066406 "/>
<path style=" stroke:none;fill-rule:nonzero;fill:rgb(100%,100%,100%);fill-opacity:1;" d="M 55.863281 4.414062 C 54.152344 3.546875 52.351562 2.855469 50.5 2.34375 C 51.691406 1.300781 53.09375 0.523438 54.613281 0.0742188 C 51.589844 -0.0625 48.566406 0.425781 45.734375 1.503906 C 43.710938 1.300781 41.667969 1.417969 39.679688 1.855469 C 40.3125 2.433594 40.824219 3.132812 41.179688 3.910156 C 39.382812 5.105469 37.792969 6.582031 36.464844 8.285156 C 38.339844 7.367188 40.300781 6.632812 42.320312 6.09375 C 42.535156 6.488281 42.761719 6.886719 43.011719 7.269531 C 43.808594 8.507812 44.726562 9.667969 45.75 10.726562 C 46.15625 8.648438 46.972656 6.675781 48.15625 4.921875 C 50.707031 4.558594 53.285156 4.390625 55.863281 4.421875 "/>
<path style=" stroke:none;fill-rule:nonzero;fill:rgb(100%,100%,100%);fill-opacity:1;" d="M 32.109375 11.925781 C 33.476562 10.613281 34.929688 9.398438 36.464844 8.289062 C 35.351562 8.3125 34.246094 8.457031 33.164062 8.71875 C 33.757812 7.214844 34.554688 5.796875 35.53125 4.503906 C 35.53125 4.503906 28.390625 9.578125 27.03125 18.710938 C 27.691406 17.203125 28.582031 15.808594 29.664062 14.570312 C 30.125 15.613281 30.710938 16.597656 31.40625 17.503906 C 31.414062 15.621094 31.648438 13.742188 32.109375 11.914062 "/>
<path style=" stroke:none;fill-rule:nonzero;fill:rgb(100%,100%,100%);fill-opacity:1;" d="M 37.828125 21.503906 C 35.839844 21.550781 33.855469 21.742188 31.894531 22.078125 C 31.644531 20.570312 31.476562 19.046875 31.394531 17.519531 C 30.304688 19.167969 29.460938 20.96875 28.894531 22.863281 C 27.171875 23.503906 26.734375 24.125 26.734375 24.125 C 27.054688 25.097656 27.566406 26 28.234375 26.773438 C 28.070312 29.027344 28.4375 31.289062 29.304688 33.375 C 29.625 31.96875 30.160156 30.617188 30.894531 29.375 C 32.214844 30.425781 33.625 31.363281 35.105469 32.175781 C 34.132812 30.378906 33.375 28.476562 32.851562 26.503906 C 34.332031 24.664062 36.007812 22.988281 37.851562 21.503906 "/>
<path style=" stroke:none;fill-rule:nonzero;fill:rgb(100%,100%,100%);fill-opacity:1;" d="M 50.09375 41.800781 C 48.359375 41.070312 46.671875 40.234375 45.039062 39.300781 C 45.203125 36.960938 45.523438 34.632812 46 32.335938 C 44.34375 33.917969 42.515625 35.316406 40.554688 36.503906 C 38.636719 35.179688 36.8125 33.726562 35.09375 32.15625 C 35.78125 34.140625 36.644531 36.0625 37.679688 37.890625 C 36.164062 38.53125 34.492188 38.703125 32.875 38.390625 C 32.875 38.390625 34.675781 40.636719 40.226562 41.589844 C 41.761719 43.414062 43.636719 44.921875 45.824219 45.445312 C 45.824219 45.445312 45.164062 44.726562 45.019531 42.011719 C 46.714844 42.027344 48.410156 41.953125 50.09375 41.785156 "/>
<path style=" stroke:none;fill-rule:nonzero;fill:rgb(100%,100%,100%);fill-opacity:1;" d="M 60.148438 41.570312 C 60.4375 40.175781 60.476562 38.742188 60.269531 37.335938 C 59.09375 39.054688 57.734375 40.640625 56.210938 42.058594 C 54.167969 42.167969 52.121094 42.082031 50.09375 41.800781 C 51.078125 42.753906 52.1875 43.566406 53.394531 44.214844 C 51.058594 45.660156 49.496094 45.785156 49.496094 45.785156 C 55.589844 45.902344 61.476562 43.578125 65.851562 39.328125 C 64.109375 40.429688 62.175781 41.1875 60.148438 41.570312 "/>
<path style=" stroke:none;fill-rule:nonzero;fill:rgb(100%,100%,100%);fill-opacity:1;" d="M 38.800781 67.753906 C 41.515625 64.644531 45.457031 62.878906 49.585938 62.929688 C 53.714844 62.980469 57.613281 64.835938 60.253906 68.011719 L 60.941406 67.371094 C 58.121094 64.019531 53.984375 62.0625 49.605469 62.015625 C 45.226562 61.96875 41.046875 63.832031 38.15625 67.121094 L 38.800781 67.753906 "/>
<path style=" stroke:none;fill-rule:nonzero;fill:rgb(100%,100%,100%);fill-opacity:1;" d="M 67.058594 59.964844 C 62.476562 55.144531 56.105469 52.429688 49.453125 52.460938 C 42.800781 52.492188 36.457031 55.265625 31.921875 60.128906 L 31.175781 59.375 C 35.949219 54.371094 42.554688 51.53125 49.46875 51.511719 C 56.386719 51.488281 63.011719 54.289062 67.816406 59.261719 L 67.058594 59.964844 "/>
<path style=" stroke:none;fill-rule:nonzero;fill:rgb(100%,100%,100%);fill-opacity:1;" d="M 72 80.359375 C 68.945312 80.359375 67.089844 77.800781 67.089844 74.988281 C 67.046875 73.648438 67.5625 72.351562 68.507812 71.398438 C 69.453125 70.445312 70.75 69.925781 72.089844 69.960938 C 75.21875 69.960938 77.089844 72.460938 77.089844 75.175781 C 77.15625 76.550781 76.640625 77.894531 75.675781 78.878906 C 74.710938 79.863281 73.378906 80.398438 72 80.359375 M 71.828125 71.429688 C 69.929688 71.429688 69.359375 73.246094 69.359375 74.46875 C 69.359375 76.265625 70.15625 78.890625 72.359375 78.890625 C 73.925781 78.890625 74.835938 77.496094 74.835938 75.820312 C 74.835938 74.039062 74.140625 71.429688 71.835938 71.429688 Z M 71.828125 71.429688 "/>
<path style=" stroke:none;fill-rule:nonzero;fill:rgb(100%,100%,100%);fill-opacity:1;" d="M 53.296875 78.90625 C 53.296875 79.453125 53.398438 79.65625 54.296875 79.824219 L 54.296875 80.210938 C 53.328125 80.160156 52.730469 80.113281 52.164062 80.113281 C 51.601562 80.113281 50.996094 80.164062 50.320312 80.210938 L 50.320312 79.824219 C 50.921875 79.71875 51.03125 79.453125 51.03125 78.734375 L 51.03125 71.234375 C 51.03125 70.804688 50.839844 70.605469 50.320312 70.589844 L 50.320312 70.160156 L 54.863281 70.160156 C 57.703125 70.160156 58.730469 71.515625 58.730469 73.289062 C 58.730469 75.195312 57.285156 76.359375 55.308594 76.359375 C 54.554688 76.359375 53.449219 75.976562 53.449219 75.65625 C 53.449219 75.515625 53.539062 75.515625 53.683594 75.515625 C 53.828125 75.515625 54.019531 75.566406 54.21875 75.566406 C 55.828125 75.566406 56.460938 74.660156 56.460938 73.378906 C 56.460938 72.003906 55.601562 71.511719 54.25 71.511719 L 53.296875 71.609375 L 53.296875 78.90625 "/>
<path style=" stroke:none;fill-rule:nonzero;fill:rgb(100%,100%,100%);fill-opacity:1;" d="M 61.691406 71.140625 C 61.691406 70.710938 61.503906 70.511719 60.984375 70.496094 L 60.984375 70.09375 C 61.660156 70.140625 62.261719 70.183594 62.824219 70.183594 C 63.390625 70.183594 63.996094 70.140625 64.664062 70.09375 L 64.664062 70.496094 C 64.164062 70.496094 63.960938 70.710938 63.960938 71.140625 L 63.960938 79.179688 C 63.960938 79.609375 64.144531 79.808594 64.664062 79.824219 L 64.664062 80.210938 C 63.988281 80.164062 63.390625 80.121094 62.824219 80.113281 C 62.261719 80.109375 61.660156 80.164062 60.984375 80.210938 L 60.984375 79.824219 C 61.484375 79.824219 61.691406 79.609375 61.691406 79.179688 L 61.691406 71.140625 "/>
<path style=" stroke:none;fill-rule:nonzero;fill:rgb(100%,100%,100%);fill-opacity:1;" d="M 80.160156 71.128906 C 80.160156 70.699219 79.980469 70.503906 79.453125 70.488281 L 79.453125 70.085938 C 80.128906 70.136719 80.730469 70.179688 81.300781 70.179688 C 81.753906 70.195312 82.203125 70.160156 82.648438 70.085938 L 86.886719 76.949219 L 86.886719 71.34375 C 86.886719 70.550781 86.386719 70.488281 85.964844 70.488281 L 85.964844 70.089844 C 86.464844 70.136719 86.964844 70.179688 87.464844 70.179688 C 87.964844 70.179688 88.464844 70.136719 88.964844 70.089844 L 88.964844 70.488281 C 88.441406 70.488281 88.261719 70.699219 88.261719 71.128906 L 88.261719 80.210938 L 86.628906 80.210938 L 81.535156 72.285156 L 81.5 72.285156 L 81.5 78.960938 C 81.5 79.753906 82 79.820312 82.425781 79.820312 L 82.425781 80.199219 C 81.925781 80.15625 81.425781 80.109375 80.925781 80.109375 C 80.425781 80.109375 79.925781 80.15625 79.425781 80.199219 L 79.425781 79.816406 C 79.949219 79.816406 80.128906 79.601562 80.128906 79.171875 L 80.128906 71.128906 "/>
<path style=" stroke:none;fill-rule:nonzero;fill:rgb(100%,100%,100%);fill-opacity:1;" d="M 92.109375 76.71875 C 92.421875 78.441406 93.554688 79.21875 95.246094 79.21875 C 96.175781 79.21875 97.515625 78.953125 97.515625 77.769531 C 97.515625 76.820312 96.539062 76.566406 95.808594 76.34375 L 94.691406 76.015625 C 93.078125 75.546875 91.464844 74.863281 91.464844 73.015625 C 91.464844 70.570312 93.835938 69.828125 96.191406 69.828125 C 97.191406 69.824219 98.1875 69.996094 99.128906 70.328125 C 99.128906 71.464844 99.191406 72.429688 99.253906 73.25 L 98.859375 73.25 C 98.523438 71.796875 97.359375 71.121094 95.921875 71.121094 C 95.136719 71.121094 93.804688 71.371094 93.804688 72.460938 C 93.804688 73.328125 94.566406 73.578125 95.210938 73.769531 L 96.871094 74.246094 C 98.464844 74.699219 99.949219 75.289062 99.949219 77.339844 C 99.949219 79.390625 97.851562 80.53125 95.273438 80.53125 C 94.109375 80.535156 92.949219 80.34375 91.84375 79.964844 C 91.84375 78.714844 91.796875 77.625 91.71875 76.710938 L 92.109375 76.710938 "/>
<path style=" stroke:none;fill-rule:nonzero;fill:rgb(100%,100%,100%);fill-opacity:1;" d="M 12.328125 71.140625 C 12.328125 70.710938 12.148438 70.511719 11.625 70.496094 L 11.625 70.09375 C 12.300781 70.140625 12.898438 70.183594 13.464844 70.183594 C 14.03125 70.183594 14.636719 70.140625 15.304688 70.09375 L 15.304688 70.496094 C 14.804688 70.496094 14.605469 70.710938 14.605469 71.140625 L 14.605469 74.179688 L 18.316406 74.179688 L 18.316406 71.140625 C 18.316406 70.710938 18.128906 70.511719 17.609375 70.496094 L 17.609375 70.09375 C 18.285156 70.140625 18.886719 70.183594 19.449219 70.183594 C 20.015625 70.183594 20.613281 70.140625 21.289062 70.09375 L 21.289062 70.496094 C 20.789062 70.496094 20.585938 70.710938 20.585938 71.140625 L 20.585938 79.179688 C 20.585938 79.609375 20.769531 79.808594 21.289062 79.824219 L 21.289062 80.214844 C 20.613281 80.171875 20.015625 80.125 19.449219 80.125 C 18.886719 80.125 18.28125 80.171875 17.609375 80.214844 L 17.609375 79.824219 C 18.109375 79.824219 18.316406 79.609375 18.316406 79.179688 L 18.316406 75.648438 L 14.601562 75.648438 L 14.601562 79.179688 C 14.601562 79.609375 14.785156 79.808594 15.304688 79.824219 L 15.304688 80.214844 C 14.628906 80.171875 14.035156 80.125 13.464844 80.125 C 12.894531 80.125 12.300781 80.171875 11.625 80.214844 L 11.625 79.824219 C 12.148438 79.824219 12.328125 79.609375 12.328125 79.179688 L 12.328125 71.140625 "/>
<path style=" stroke:none;fill-rule:nonzero;fill:rgb(100%,100%,100%);fill-opacity:1;" d="M 26.96875 75.820312 C 27.371094 74.730469 27.859375 73.519531 28.214844 72.289062 L 28.246094 72.289062 C 28.464844 73.484375 28.761719 74.664062 29.136719 75.820312 L 26.96875 75.820312 M 23.253906 80.210938 C 23.796875 80.160156 24.316406 80.113281 24.851562 80.113281 C 25.386719 80.113281 25.914062 80.164062 26.433594 80.210938 L 26.433594 79.824219 C 25.933594 79.796875 25.710938 79.609375 25.710938 79.324219 C 25.722656 79.140625 25.765625 78.960938 25.835938 78.789062 L 26.5 77.003906 L 29.5 77.003906 L 30 78.503906 C 30.09375 78.75 30.144531 79.011719 30.15625 79.273438 C 30.15625 79.625 29.953125 79.773438 29.386719 79.855469 L 29.386719 80.238281 C 30.050781 80.191406 30.710938 80.144531 31.386719 80.144531 C 32.058594 80.144531 32.691406 80.195312 33.335938 80.238281 L 33.335938 79.855469 C 32.875 79.730469 32.644531 79.535156 32.414062 78.855469 L 29.589844 70.121094 C 29.113281 70.164062 28.625 70.210938 28.148438 70.210938 C 27.675781 70.210938 27.199219 70.164062 26.703125 70.121094 L 26.703125 70.519531 C 27.121094 70.519531 27.289062 70.765625 27.289062 70.921875 C 27.253906 71.128906 27.191406 71.332031 27.09375 71.519531 L 24.09375 79.144531 C 24 79.523438 23.683594 79.804688 23.296875 79.851562 L 23.296875 80.234375 Z M 23.253906 80.210938 "/>
<path style=" stroke:none;fill-rule:nonzero;fill:rgb(100%,100%,100%);fill-opacity:1;" d="M 36.40625 72.578125 C 36.40625 72.15625 36.449219 71.71875 36.449219 71.109375 C 36.449219 70.609375 36.339844 70.574219 35.761719 70.496094 L 35.761719 70.09375 C 36.21875 70.140625 36.761719 70.183594 37.324219 70.183594 C 37.890625 70.183594 38.429688 70.140625 38.980469 70.09375 L 41.671875 77.210938 L 44.074219 70.09375 C 44.609375 70.140625 45.136719 70.183594 45.671875 70.183594 C 46.203125 70.183594 46.746094 70.140625 47.265625 70.09375 L 47.265625 70.496094 C 46.730469 70.546875 46.65625 70.710938 46.65625 71.125 C 46.65625 71.539062 46.714844 72.246094 46.761719 72.769531 L 47.261719 79.320312 C 47.296875 79.71875 47.761719 79.78125 48.046875 79.820312 L 48.046875 80.203125 C 47.386719 80.15625 46.710938 80.109375 46.046875 80.109375 C 45.378906 80.109375 44.714844 80.160156 44.085938 80.203125 L 44.085938 79.820312 C 44.835938 79.730469 45.035156 79.589844 45.035156 78.886719 C 45.035156 78.515625 44.988281 77.824219 44.945312 77.320312 L 44.59375 72.746094 L 44.550781 72.746094 L 42 80.296875 L 40.699219 80.296875 L 37.769531 72.660156 L 37.738281 72.660156 L 37.613281 77.160156 C 37.613281 77.960938 37.570312 78.371094 37.570312 78.785156 C 37.570312 79.554688 37.644531 79.726562 38.570312 79.828125 L 38.570312 80.214844 C 37.953125 80.164062 37.386719 80.121094 36.804688 80.121094 C 36.226562 80.121094 35.664062 80.171875 35.191406 80.214844 L 35.191406 79.828125 C 35.789062 79.785156 36.035156 79.644531 36.066406 79 L 36.40625 72.585938 "/>
<path style=" stroke:none;fill-rule:nonzero;fill:rgb(100%,100%,100%);fill-opacity:1;" d="M 9.316406 79.644531 C 8.277344 80.371094 7.042969 80.765625 5.773438 80.773438 C 2.113281 80.773438 0.0507812 77.933594 0.0507812 75.03125 C 0.0507812 72.125 2.113281 69.179688 6.078125 69.179688 C 7.023438 69.160156 7.960938 69.300781 8.855469 69.59375 C 8.855469 70.761719 8.921875 71.878906 9.003906 72.996094 L 8.558594 72.996094 C 8.390625 71.667969 7.207031 70.710938 5.875 70.820312 C 3.945312 70.820312 2.453125 72.320312 2.453125 74.910156 C 2.453125 76.839844 4.050781 79.03125 6.28125 79.03125 C 7.460938 78.949219 8.589844 78.496094 9.5 77.738281 L 9.304688 79.644531 "/>
<path style=" stroke:none;fill-rule:nonzero;fill:rgb(100%,100%,100%);fill-opacity:1;" d="M 25.925781 85.753906 C 25.925781 85.425781 25.78125 85.253906 25.378906 85.253906 L 25.378906 84.929688 C 25.878906 84.964844 26.378906 85 26.800781 85 C 27.21875 85 28.019531 84.964844 28.363281 84.929688 L 28.363281 85.253906 C 27.761719 85.28125 27.679688 85.574219 27.679688 85.90625 L 27.679688 91.703125 L 29.871094 91.703125 C 30.648438 91.703125 30.96875 91.351562 31.171875 90.449219 L 31.554688 90.449219 C 31.394531 91.207031 31.296875 91.976562 31.269531 92.75 L 25.378906 92.75 L 25.378906 92.425781 C 25.78125 92.425781 25.925781 92.261719 25.925781 91.925781 L 25.925781 85.753906 "/>
<path style=" stroke:none;fill-rule:nonzero;fill:rgb(100%,100%,100%);fill-opacity:1;" d="M 33.460938 85.796875 C 33.460938 85.464844 33.320312 85.296875 32.921875 85.296875 L 32.921875 84.96875 L 38.921875 84.96875 C 38.921875 85.621094 38.960938 86.148438 39.019531 86.789062 L 38.695312 86.789062 C 38.574219 86.140625 38.410156 85.914062 37.769531 85.914062 L 35.21875 85.914062 L 35.21875 88.203125 L 36.789062 88.203125 C 37.324219 88.203125 37.40625 88.023438 37.480469 87.601562 L 37.800781 87.601562 C 37.765625 87.894531 37.730469 88.40625 37.730469 88.726562 C 37.730469 89.046875 37.765625 89.566406 37.800781 89.851562 L 37.5 89.851562 C 37.425781 89.425781 37.34375 89.246094 36.808594 89.246094 L 35.21875 89.246094 L 35.21875 91.703125 L 37.878906 91.703125 C 38.519531 91.703125 38.71875 91.496094 38.921875 90.496094 L 39.316406 90.496094 C 39.230469 91.242188 39.183594 91.996094 39.175781 92.75 L 32.921875 92.75 L 32.921875 92.425781 C 33.320312 92.425781 33.460938 92.261719 33.460938 91.925781 L 33.460938 85.796875 "/>
<path style=" stroke:none;fill-rule:nonzero;fill:rgb(100%,100%,100%);fill-opacity:1;" d="M 40.734375 92.429688 C 41.035156 92.398438 41.28125 92.183594 41.355469 91.890625 L 43.675781 86.003906 C 43.753906 85.863281 43.804688 85.707031 43.828125 85.546875 C 43.828125 85.425781 43.699219 85.238281 43.378906 85.238281 L 43.378906 84.921875 C 43.753906 84.953125 44.125 84.988281 44.496094 84.988281 C 44.863281 84.988281 45.238281 84.953125 45.605469 84.921875 L 47.785156 91.65625 C 47.964844 92.15625 48.140625 92.328125 48.496094 92.425781 L 48.496094 92.746094 C 47.996094 92.710938 47.496094 92.675781 46.996094 92.675781 C 46.496094 92.675781 45.996094 92.710938 45.464844 92.746094 L 45.464844 92.425781 C 45.90625 92.339844 46.054688 92.246094 46.054688 91.976562 C 46.042969 91.773438 46.003906 91.570312 45.941406 91.378906 L 45.558594 90.234375 L 43.25 90.234375 L 42.75 91.628906 C 42.695312 91.761719 42.664062 91.902344 42.65625 92.046875 C 42.65625 92.253906 42.824219 92.394531 43.214844 92.425781 L 43.214844 92.746094 C 42.816406 92.710938 42.398438 92.675781 41.996094 92.675781 C 41.589844 92.675781 41.175781 92.710938 40.761719 92.746094 L 40.761719 92.421875 M 45.300781 89.339844 C 45.015625 88.449219 44.785156 87.539062 44.613281 86.621094 L 44.589844 86.621094 C 44.316406 87.566406 43.941406 88.5 43.628906 89.339844 Z M 45.300781 89.339844 "/>
<path style=" stroke:none;fill-rule:nonzero;fill:rgb(100%,100%,100%);fill-opacity:1;" d="M 54.835938 90.003906 C 54.835938 89.503906 54.621094 89.503906 54.089844 89.503906 L 54.089844 89.109375 C 54.589844 89.144531 55.058594 89.179688 55.558594 89.179688 C 56.058594 89.179688 56.613281 89.144531 57.144531 89.109375 L 57.144531 89.480469 C 56.730469 89.480469 56.515625 89.601562 56.515625 90.128906 L 56.515625 92.785156 L 55.828125 92.785156 L 55.558594 91.988281 C 54.9375 92.605469 54.09375 92.949219 53.21875 92.941406 C 50.996094 92.941406 49.574219 91.105469 49.574219 88.96875 C 49.574219 86.398438 51.289062 84.839844 53.851562 84.839844 C 54.664062 84.808594 55.472656 85.003906 56.183594 85.394531 C 56.183594 85.980469 56.183594 86.644531 56.261719 87.460938 L 55.921875 87.460938 C 55.765625 86.40625 54.765625 85.886719 53.78125 85.886719 C 52.136719 85.886719 51.328125 87.144531 51.328125 88.675781 C 51.328125 90.203125 52.160156 91.800781 53.53125 91.800781 C 54.375 91.800781 54.835938 91.410156 54.835938 90.863281 L 54.835938 90.003906 "/>
<path style=" stroke:none;fill-rule:nonzero;fill:rgb(100%,100%,100%);fill-opacity:1;" d="M 59.523438 85.753906 C 59.523438 85.425781 59.386719 85.253906 58.980469 85.253906 L 58.980469 84.929688 C 59.359375 84.964844 59.84375 85 60.34375 85 C 60.960938 85 61.445312 84.964844 61.921875 84.929688 L 61.921875 85.253906 C 61.421875 85.28125 61.28125 85.371094 61.28125 85.835938 L 61.28125 90.261719 C 61.28125 91.601562 61.835938 91.863281 62.78125 91.863281 C 63.726562 91.863281 64.28125 91.574219 64.28125 90.261719 L 64.28125 85.835938 C 64.28125 85.371094 64.148438 85.28125 63.640625 85.253906 L 63.640625 84.929688 C 64.140625 84.964844 64.59375 85 65.214844 85 C 65.714844 85 66.214844 84.964844 66.574219 84.929688 L 66.574219 85.253906 C 66.175781 85.253906 66.03125 85.421875 66.03125 85.753906 L 66.03125 90.003906 C 66.03125 92.195312 64.894531 92.894531 62.761719 92.894531 C 60.625 92.894531 59.488281 92.195312 59.488281 90.164062 L 59.488281 85.753906 "/>
<path style=" stroke:none;fill-rule:nonzero;fill:rgb(100%,100%,100%);fill-opacity:1;" d="M 69.121094 85.796875 C 69.121094 85.464844 68.976562 85.296875 68.574219 85.296875 L 68.574219 84.96875 L 74.574219 84.96875 C 74.574219 85.621094 74.609375 86.148438 74.671875 86.789062 L 74.34375 86.789062 C 74.226562 86.140625 74.066406 85.914062 73.421875 85.914062 L 70.890625 85.914062 L 70.890625 88.164062 L 72.460938 88.164062 C 72.996094 88.164062 73.078125 87.988281 73.148438 87.566406 L 73.46875 87.566406 C 73.433594 87.859375 73.40625 88.371094 73.40625 88.683594 C 73.40625 89 73.433594 89.53125 73.46875 89.816406 L 73.148438 89.816406 C 73.078125 89.390625 72.996094 89.210938 72.460938 89.210938 L 70.890625 89.210938 L 70.890625 91.710938 L 73.554688 91.710938 C 74.191406 91.710938 74.394531 91.5 74.59375 90.5 L 75 90.5 C 74.890625 91.476562 74.871094 92.105469 74.855469 92.753906 L 68.574219 92.753906 L 68.574219 92.429688 C 68.976562 92.429688 69.121094 92.265625 69.121094 91.929688 L 69.121094 85.796875 "/>
<path style=" stroke:none;fill-rule:evenodd;fill:rgb(100%,100%,100%);fill-opacity:1;" d="M 76.816406 95.945312 C 77.59375 95.929688 78.214844 95.292969 78.203125 94.511719 C 78.195312 93.734375 77.558594 93.109375 76.78125 93.117188 C 76.003906 93.121094 75.375 93.75 75.375 94.53125 C 75.375 94.910156 75.527344 95.273438 75.796875 95.542969 C 76.066406 95.808594 76.433594 95.953125 76.816406 95.945312 M 75.660156 94.53125 C 75.675781 93.898438 76.199219 93.398438 76.828125 93.410156 C 77.457031 93.421875 77.964844 93.9375 77.960938 94.566406 C 77.957031 95.195312 77.445312 95.707031 76.816406 95.710938 C 76.503906 95.710938 76.203125 95.589844 75.984375 95.367188 C 75.769531 95.144531 75.652344 94.839844 75.660156 94.53125 Z M 76.515625 94.640625 L 76.800781 94.640625 L 77.230469 95.351562 L 77.5 95.351562 L 77.035156 94.628906 C 77.152344 94.628906 77.261719 94.582031 77.34375 94.496094 C 77.421875 94.410156 77.464844 94.296875 77.460938 94.179688 C 77.460938 93.859375 77.269531 93.714844 76.878906 93.714844 L 76.261719 93.714844 L 76.261719 95.351562 L 76.511719 95.351562 L 76.511719 94.640625 Z M 76.515625 94.429688 L 76.515625 93.929688 L 76.851562 93.929688 C 77.023438 93.929688 77.203125 93.964844 77.203125 94.171875 C 77.203125 94.375 77.019531 94.433594 76.808594 94.433594 Z M 76.515625 94.429688 "/>
<path style=" stroke:none;fill-rule:nonzero;fill:rgb(100%,100%,100%);fill-opacity:1;" d="M 33.410156 60.59375 L 34.410156 59.785156 L 36.734375 62.628906 C 37.234375 63.210938 37.980469 63.703125 39.019531 62.828125 C 39.910156 61.964844 39.519531 61.226562 38.828125 60.421875 L 36.765625 57.878906 L 37.765625 57.039062 L 40.054688 59.875 C 40.550781 60.382812 40.828125 61.066406 40.828125 61.773438 C 40.707031 63.332031 39.433594 64.550781 37.871094 64.605469 C 37.0625 64.613281 36.292969 64.242188 35.796875 63.605469 Z M 33.410156 60.59375 "/>
<path style=" stroke:none;fill-rule:nonzero;fill:rgb(100%,100%,100%);fill-opacity:1;" d="M 43.644531 59.585938 L 42.839844 55.675781 C 42.71875 55.175781 42.816406 54.953125 43.339844 54.824219 L 47.046875 54.058594 L 47.304688 55.273438 L 44.144531 55.898438 L 44.449219 57.304688 L 47.324219 56.703125 L 47.59375 57.875 L 44.710938 58.503906 L 44.859375 59.179688 C 45.003906 59.734375 45.246094 59.855469 45.859375 59.710938 L 48.113281 59.25 L 48.390625 60.445312 L 46.085938 60.945312 C 44.296875 61.226562 43.84375 60.425781 43.644531 59.585938 Z M 43.644531 59.585938 "/>
<path style=" stroke:none;fill-rule:nonzero;fill:rgb(100%,100%,100%);fill-opacity:1;" d="M 52.710938 60.855469 L 52.175781 60.730469 C 51.675781 60.589844 51.429688 60.476562 51.675781 59.640625 L 52.675781 55.925781 C 53.105469 54.425781 54.425781 54.59375 55.21875 54.78125 L 57.476562 55.371094 L 57.15625 56.566406 L 55.054688 56.003906 C 54.476562 55.839844 54.054688 55.746094 53.863281 56.390625 L 53.683594 57.136719 L 56.5 57.855469 L 56.199219 59.003906 L 53.355469 58.261719 Z M 52.710938 60.855469 "/>
<path style=" stroke:none;fill-rule:nonzero;fill:rgb(100%,100%,100%);fill-opacity:1;" d="M 58.125 62.816406 L 56.914062 62.105469 L 62.316406 58.605469 C 62.699219 58.339844 63.019531 58.316406 63.265625 58.523438 L 63.503906 58.738281 C 63.730469 58.96875 63.785156 59.003906 63.503906 59.953125 L 61.839844 65.796875 L 60.761719 64.796875 L 61.109375 63.601562 L 59.890625 62.601562 L 60.980469 61.898438 L 61.480469 62.304688 L 62.109375 60.171875 Z M 58.125 62.816406 "/>
</g>
</svg>
