<svg width="252" height="75" viewBox="0 0 252 75" fill="none" xmlns="http://www.w3.org/2000/svg">
<g clip-path="url(#clip0_110:14)">
<path d="M251.251 65.7717C251.251 70.4162 247.206 74.1618 242.112 74.1618H9.88822C4.79428 74.1618 0.7491 70.4162 0.7491 65.7717V9.13916C0.7491 4.49469 4.79428 0.749146 9.88822 0.749146H242.112C247.206 0.749146 251.251 4.49469 251.251 9.13916V65.7717Z" fill="#100F0D" stroke="#A3A3A3" stroke-width="1.49822" stroke-miterlimit="8" stroke-linecap="round"/>
<path d="M107.572 27.5671V17.0796H111.168C111.917 17.0796 112.666 17.0796 113.115 17.2294C113.715 17.3792 114.314 17.6789 114.614 17.9785C115.213 18.428 115.512 19.0273 115.812 19.7764C116.112 20.5255 116.262 21.2746 116.262 22.3233C116.262 23.0725 116.112 23.8216 115.962 24.4208C115.812 25.0201 115.512 25.6194 115.213 25.9191C114.913 26.3685 114.614 26.6682 114.314 26.818C114.014 27.1176 113.565 27.2675 113.115 27.4173C112.666 27.5671 112.067 27.5671 111.467 27.5671H107.572ZM108.92 26.3685H111.168C111.917 26.3685 112.366 26.2187 112.816 26.2187C113.265 26.0689 113.565 25.9191 113.715 25.6194C114.014 25.3198 114.314 24.8703 114.464 24.271C114.614 23.6717 114.763 23.0725 114.763 22.3233C114.763 21.2746 114.614 20.3757 114.164 19.7764C113.715 19.1771 113.415 18.8774 112.816 18.5778C112.366 18.428 111.917 18.428 111.018 18.428H108.77L108.92 26.3685Z" fill="white"/>
<path d="M117.46 23.8217C117.46 22.3235 117.91 21.2747 118.659 20.6754C119.258 20.0761 120.157 19.7765 121.056 19.7765C122.105 19.7765 123.004 20.0761 123.603 20.8252C124.202 21.5743 124.652 22.4733 124.652 23.6719C124.652 24.5708 124.502 25.4697 124.202 25.9192C123.902 26.5185 123.453 26.9679 122.854 27.2676C122.254 27.5672 121.655 27.717 121.056 27.717C120.007 27.717 119.108 27.4174 118.509 26.6683C117.76 26.069 117.46 25.0202 117.46 23.8217ZM118.809 23.8217C118.809 24.7206 118.958 25.4697 119.408 26.069C119.857 26.5185 120.307 26.8181 121.056 26.8181C121.805 26.8181 122.254 26.5185 122.704 26.069C123.153 25.6195 123.303 24.8704 123.303 23.8217C123.303 22.9227 123.153 22.1736 122.704 21.7242C122.254 21.2747 121.805 20.9751 121.056 20.9751C120.307 20.9751 119.857 21.2747 119.408 21.7242C118.958 22.1736 118.809 22.7729 118.809 23.8217Z" fill="white"/>
<path d="M127.498 27.5672L125.101 19.9263H126.449L127.648 24.2711L128.098 25.9191C128.098 25.7693 128.247 25.3198 128.547 24.4209L129.746 19.9263H131.094L132.293 24.2711L132.742 25.7693L133.191 24.2711L134.54 19.9263H135.738L133.341 27.5672H131.843L130.644 22.9227L130.345 21.7241L128.847 27.5672H127.498Z" fill="white"/>
<path d="M136.787 27.5672V19.9263H137.836V20.9751C138.435 20.0761 139.184 19.7765 140.233 19.7765C140.682 19.7765 141.132 19.9263 141.432 20.0761C141.881 20.226 142.031 20.5256 142.331 20.6754C142.63 20.8252 142.63 21.2747 142.78 21.5743C142.78 21.874 142.93 22.1736 142.93 22.7729V27.4174H141.581V22.7729C141.581 22.1736 141.581 21.874 141.432 21.5743C141.282 21.2747 141.132 21.1249 140.832 20.9751C140.682 20.9751 140.383 20.9751 140.083 20.9751C139.484 20.9751 139.034 21.1249 138.585 21.4245C138.136 21.7242 137.986 22.4733 137.986 23.3722V27.5672C138.136 27.5672 136.787 27.5672 136.787 27.5672Z" fill="white"/>
<path d="M144.878 27.5672V17.0797H146.226V27.5672H144.878Z" fill="white"/>
<path d="M147.724 23.8217C147.724 22.3235 148.174 21.2747 148.923 20.6754C149.522 20.0761 150.421 19.7765 151.32 19.7765C152.369 19.7765 153.268 20.0761 153.867 20.8252C154.466 21.4245 154.916 22.4733 154.916 23.6719C154.916 24.5708 154.766 25.4697 154.466 25.9192C154.166 26.5185 153.717 26.9679 153.118 27.2676C152.518 27.5672 151.919 27.717 151.32 27.717C150.271 27.717 149.372 27.4174 148.773 26.6683C148.024 26.069 147.724 25.0202 147.724 23.8217ZM148.923 23.8217C148.923 24.7206 149.073 25.4697 149.522 26.069C149.971 26.5185 150.421 26.8181 151.17 26.8181C151.919 26.8181 152.369 26.5185 152.818 26.069C153.268 25.6195 153.417 24.8704 153.417 23.8217C153.417 22.9227 153.268 22.1736 152.818 21.7242C152.369 21.2747 151.919 20.9751 151.17 20.9751C150.421 20.9751 149.971 21.2747 149.522 21.7242C149.222 22.1736 148.923 22.7729 148.923 23.8217Z" fill="white"/>
<path d="M161.358 26.6682C160.908 27.1177 160.459 27.4174 160.01 27.5672C159.56 27.717 159.111 27.8668 158.511 27.8668C157.612 27.8668 157.013 27.717 156.564 27.2675C156.114 26.8181 155.964 26.3686 155.964 25.7693C155.964 25.3198 156.114 25.0202 156.264 24.7206C156.414 24.4209 156.713 24.1213 156.863 23.9715C157.163 23.8216 157.463 23.6718 157.762 23.522C158.062 23.3722 158.361 23.3722 158.961 23.3722C160.01 23.2223 160.759 23.0725 161.208 22.9227V22.4732C161.208 21.874 161.058 21.5743 160.759 21.4245C160.459 21.1248 159.86 20.975 159.26 20.975C158.661 20.975 158.212 21.1248 157.912 21.2747C157.612 21.4245 157.463 21.874 157.313 22.4732L156.114 22.3234C156.264 21.7241 156.414 21.4245 156.713 20.975C157.013 20.6754 157.313 20.3757 157.912 20.2259C158.361 20.0761 158.961 19.9263 159.56 19.9263C160.159 19.9263 160.759 20.0761 161.208 20.0761C161.658 20.2259 161.957 20.3757 162.107 20.6754C162.257 20.975 162.407 21.1248 162.556 21.5743C162.556 21.7241 162.706 22.1736 162.706 22.7729V24.4209C162.706 25.6195 162.706 26.3686 162.856 26.6682C162.856 26.9679 163.006 27.2675 163.156 27.5672H161.807C161.358 27.4174 161.358 26.9679 161.358 26.6682ZM161.208 23.8216C160.759 23.9715 160.01 24.1213 159.111 24.2711C158.511 24.4209 158.212 24.4209 157.912 24.5707C157.612 24.7206 157.463 24.8704 157.463 25.0202C157.463 25.17 157.313 25.4697 157.313 25.6195C157.313 25.9191 157.463 26.2188 157.762 26.5184C158.062 26.6682 158.361 26.8181 158.961 26.8181C159.41 26.8181 159.86 26.6682 160.309 26.5184C160.759 26.3686 160.908 26.069 161.208 25.6195C161.358 25.3198 161.358 24.8704 161.358 24.2711V23.8216H161.208Z" fill="white"/>
<path d="M169.448 27.5672V26.6683C168.999 27.4174 168.25 27.8668 167.351 27.8668C166.751 27.8668 166.152 27.717 165.703 27.4174C165.253 27.1177 164.804 26.6683 164.504 26.069C164.205 25.4697 164.055 24.7206 164.055 23.9715C164.055 23.2224 164.205 22.4732 164.504 21.874C164.804 21.2747 165.103 20.8252 165.703 20.3757C166.152 20.0761 166.751 19.9263 167.351 19.9263C167.8 19.9263 168.25 20.0761 168.549 20.2259C168.999 20.3757 169.149 20.6754 169.448 20.975V17.2295H170.797V27.717H169.448V27.5672ZM165.403 23.8216C165.403 24.7206 165.553 25.4697 166.002 26.069C166.452 26.5184 166.901 26.8181 167.501 26.8181C168.1 26.8181 168.549 26.6683 168.999 26.2188C169.448 25.7693 169.598 25.0202 169.598 24.1213C169.598 23.0725 169.448 22.3234 168.999 21.874C168.549 21.4245 168.1 21.1249 167.501 21.1249C166.901 21.1249 166.452 21.4245 166.002 21.874C165.553 22.0238 165.403 22.7729 165.403 23.8216Z" fill="white"/>
<path d="M177.089 27.5673V20.9751H175.891V19.9264H177.089V19.1773C177.089 18.7278 177.089 18.2783 177.239 17.9787C177.389 17.679 177.539 17.3794 177.838 17.2296C178.138 17.0798 178.587 16.9299 179.187 16.9299C179.636 16.9299 179.936 16.9299 180.385 17.0798L180.235 18.2783C179.936 18.2783 179.786 18.1285 179.486 18.1285C179.037 18.1285 178.887 18.2783 178.587 18.4281C178.438 18.578 178.288 18.8776 178.288 19.3271V20.0762H179.786V20.9751H178.288V27.5673H177.089Z" fill="white"/>
<path d="M180.385 23.8217C180.385 22.3235 180.835 21.2747 181.584 20.6754C182.183 20.0761 183.082 19.7765 183.981 19.7765C185.03 19.7765 185.929 20.0761 186.528 20.8252C187.127 21.5743 187.577 22.4733 187.577 23.6719C187.577 24.5708 187.427 25.4697 187.127 25.9192C186.828 26.5185 186.378 26.9679 185.779 27.2676C185.18 27.5672 184.58 27.717 183.981 27.717C182.932 27.717 182.033 27.4174 181.434 26.6683C180.685 26.069 180.385 25.0202 180.385 23.8217ZM181.734 23.8217C181.734 24.7206 181.883 25.4697 182.333 26.069C182.782 26.5185 183.232 26.8181 183.981 26.8181C184.58 26.8181 185.18 26.5185 185.629 26.069C186.078 25.6195 186.228 24.8704 186.228 23.8217C186.228 22.9227 186.078 22.1736 185.629 21.7242C185.18 21.2747 184.73 20.9751 183.981 20.9751C183.382 20.9751 182.782 21.2747 182.333 21.7242C181.883 22.1736 181.734 22.7729 181.734 23.8217Z" fill="white"/>
<path d="M188.925 27.5672V19.9263H190.124V21.1249C190.423 20.5256 190.723 20.226 191.023 20.0761C191.322 19.9263 191.622 19.7765 191.922 19.7765C192.371 19.7765 192.82 19.9263 193.27 20.226L192.82 21.4245C192.521 21.2747 192.221 21.1249 191.922 21.1249C191.622 21.1249 191.322 21.2747 191.172 21.4245C191.023 21.5743 190.723 21.874 190.723 22.1736C190.573 22.6231 190.573 23.0726 190.573 23.6719V27.5672H188.925Z" fill="white"/>
<path d="M73.113 29.0653L79.5553 17.8287C79.8549 17.2294 79.7051 16.4803 79.1058 16.0309C78.5066 15.5814 77.7575 15.881 77.308 16.4803L70.7158 27.8668C65.7717 25.6194 60.0785 24.2711 54.0856 24.2711C48.0928 24.2711 42.3995 25.4696 37.4554 27.8668L30.8633 16.4803C30.5636 15.881 29.6647 15.5814 29.0654 16.0309C28.4661 16.4803 28.1665 17.2294 28.616 17.9785L35.0583 29.2152C23.9715 35.208 16.3306 46.4447 15.132 59.629H93.0393C91.6909 46.4447 84.1998 35.208 73.113 29.0653ZM36.2569 48.692C34.459 48.692 32.9608 47.1938 32.9608 45.3959C32.9608 43.598 34.459 42.0998 36.2569 42.0998C38.0547 42.0998 39.5529 43.598 39.5529 45.3959C39.4031 47.1938 38.0547 48.692 36.2569 48.692ZM71.9144 48.692C70.1165 48.692 68.6183 47.1938 68.6183 45.3959C68.6183 43.598 70.1165 42.0998 71.9144 42.0998C73.7123 42.0998 75.2105 43.598 75.2105 45.3959C75.2105 47.1938 73.7123 48.692 71.9144 48.692Z" fill="white"/>
<path d="M112.814 41.5804C108.855 41.5804 104.896 44.7477 104.896 50.0924C104.896 55.0412 108.459 58.6043 112.814 58.6043C116.377 58.6043 117.96 56.2289 117.96 56.2289V57.2186C117.96 57.8125 118.356 58.2084 118.95 58.2084H121.524V41.9763H117.762V44.1538C118.158 44.1538 116.377 41.5804 112.814 41.5804ZM113.605 44.9456C116.773 44.9456 118.554 47.7169 118.554 50.0924C118.554 52.8637 116.575 55.2391 113.605 55.2391C111.23 55.2391 108.855 53.2596 108.855 49.8944C108.657 47.321 110.834 44.9456 113.605 44.9456Z" fill="white"/>
<path d="M126.868 58.4064C126.274 58.4064 125.878 58.0104 125.878 57.4166V41.9763H129.639V43.9559C130.431 42.7681 132.015 41.5804 134.588 41.5804C138.745 41.5804 140.923 44.7477 140.923 47.9149V58.4064H138.349C137.756 58.4064 137.162 57.8125 137.162 57.2186V48.7067C137.162 46.9251 136.172 44.9456 133.796 44.9456C131.223 44.9456 129.639 47.321 129.639 49.6965V58.4064H126.868Z" fill="white"/>
<path d="M151.414 41.5802C147.455 41.5802 143.496 44.7475 143.496 50.0922C143.496 55.0409 147.059 58.6041 151.414 58.6041C154.977 58.6041 156.561 56.2287 156.561 56.2287V57.2184C156.561 57.8123 156.957 58.2082 157.551 58.2082H160.124V33.8601H156.363V44.1536C156.561 44.1536 154.977 41.5802 151.414 41.5802ZM152.008 44.9454C155.175 44.9454 156.957 47.7167 156.957 50.0922C156.957 52.8635 154.977 55.2389 152.008 55.2389C149.633 55.2389 147.257 53.2594 147.257 49.8942C147.257 47.3208 149.237 44.9454 152.008 44.9454Z" fill="white"/>
<path d="M165.469 58.4063C164.875 58.4063 164.479 58.0104 164.479 57.4165V41.9763H168.24V44.7476C168.834 43.164 170.22 41.7783 172.595 41.7783C173.189 41.7783 173.981 41.9763 173.981 41.9763V45.7374C173.981 45.7374 173.189 45.3414 172.199 45.3414C169.626 45.3414 168.24 47.7169 168.24 50.0923V58.4063H165.469Z" fill="white"/>
<path d="M196.151 58.4062C195.557 58.4062 195.162 58.0103 195.162 57.4164V41.9762H198.923V58.4062H196.151Z" fill="white"/>
<path d="M209.414 41.5802C205.455 41.5802 201.496 44.7475 201.496 50.0922C201.496 55.0409 205.059 58.6041 209.414 58.6041C212.977 58.6041 214.561 56.2287 214.561 56.2287V57.2184C214.561 57.8123 214.957 58.2082 215.551 58.2082H218.124V33.8601H214.363V44.1536C214.759 44.1536 213.175 41.5802 209.414 41.5802ZM210.206 44.9454C213.373 44.9454 215.155 47.7167 215.155 50.0922C215.155 52.8635 213.175 55.2389 210.206 55.2389C207.831 55.2389 205.455 53.2594 205.455 49.8942C205.257 47.3208 207.435 44.9454 210.206 44.9454Z" fill="white"/>
<path d="M196.745 38.4131C198.057 38.4131 199.121 37.3496 199.121 36.0376C199.121 34.7257 198.057 33.6622 196.745 33.6622C195.433 33.6622 194.37 34.7257 194.37 36.0376C194.37 37.3496 195.433 38.4131 196.745 38.4131Z" fill="white"/>
<path d="M183.482 41.5804C179.325 41.5804 174.971 44.5497 174.971 50.0924C174.971 55.0412 178.732 58.6043 183.482 58.6043C189.421 58.6043 192.192 53.8534 192.192 50.0924C192.192 45.5395 188.431 41.5804 183.482 41.5804ZM183.482 45.1436C186.254 45.1436 188.431 47.519 188.431 50.2903C188.431 53.2596 186.254 55.4371 183.482 55.4371C180.909 55.4371 178.534 53.4575 178.534 50.2903C178.534 47.1231 180.909 45.1436 183.482 45.1436Z" fill="white"/>
</g>
<defs>
<clipPath id="clip0_110:14">
<rect width="252" height="74.9108" fill="white"/>
</clipPath>
</defs>
</svg>
