<?xml version="1.0" encoding="UTF-8" standalone="no"?>
<svg
   xmlns:dc="http://purl.org/dc/elements/1.1/"
   xmlns:cc="http://creativecommons.org/ns#"
   xmlns:rdf="http://www.w3.org/1999/02/22-rdf-syntax-ns#"
   xmlns:svg="http://www.w3.org/2000/svg"
   xmlns="http://www.w3.org/2000/svg"
   xmlns:sodipodi="http://sodipodi.sourceforge.net/DTD/sodipodi-0.dtd"
   xmlns:inkscape="http://www.inkscape.org/namespaces/inkscape"
   viewBox="0 0 227.66695 28.611492"
   version="1.1"
   id="svg8"
   sodipodi:docname="you.svg"
   width="227.66695"
   height="28.611492"
   style="fill:none"
   inkscape:version="0.92.2 5c3e80d, 2017-08-06">
  <metadata
     id="metadata14">
    <rdf:RDF>
      <cc:Work
         rdf:about="">
        <dc:format>image/svg+xml</dc:format>
        <dc:type
           rdf:resource="http://purl.org/dc/dcmitype/StillImage" />
      </cc:Work>
    </rdf:RDF>
  </metadata>
  <defs
     id="defs12" />
  <sodipodi:namedview
     pagecolor="#ffffff"
     bordercolor="#666666"
     borderopacity="1"
     objecttolerance="10"
     gridtolerance="10"
     guidetolerance="10"
     inkscape:pageopacity="0"
     inkscape:pageshadow="2"
     inkscape:window-width="1275"
     inkscape:window-height="750"
     id="namedview10"
     showgrid="false"
     inkscape:zoom="1.4148472"
     inkscape:cx="114.39746"
     inkscape:cy="14.52287"
     inkscape:window-x="0"
     inkscape:window-y="0"
     inkscape:window-maximized="0"
     inkscape:current-layer="svg8" />
  <path
     d="m 158.75446,28.364023 c 2.063,0 3.094,-0.9423 3.093,-2.8269 v -10.3766 l 7.847,-10.3384399 c 0.38,-0.50149 0.579,-1.11673 0.565,-1.74577 0.01,-0.37678 -0.06,-0.75141 -0.204,-1.0995 -0.145,-0.3481 -0.361,-0.66186 -0.635,-0.92089 -0.669,-0.57674004 -1.54,-0.86422004 -2.422,-0.79932004 -0.881,0.0649 -1.701,0.47687 -2.279,1.14548004 l -5.965,8.11964 -5.964,-8.11964 c -0.3,-0.38919 -0.691,-0.69820004 -1.14,-0.89951004 -0.448,-0.20132 -0.939,-0.28869 -1.429,-0.25434 -0.392,-0.01124 -0.782,0.05687 -1.146,0.20023 -0.365,0.14336 -0.697,0.35902 -0.977,0.63400004 -0.271,0.25522 -0.487,0.56397 -0.633,0.90675 -0.146,0.34279 -0.22,0.71216 -0.216,1.08479 -0.013,0.62916 0.186,1.24439 0.567,1.74577 l 7.824,10.3384499 v 10.3765 c 0,1.8847 1.038,2.827 3.115,2.827 z m 20.22,-7.8346 c -1.354,-1.785 -2.047,-3.9841 -1.962,-6.2227 -0.077,-2.1849 0.578,-4.3329999 1.862,-6.1027199 0.684,-0.91608 1.581,-1.65205 2.613,-2.14452 1.032,-0.49246 2.168,-0.72666 3.31,-0.68241 1.176,-0.02964 2.341,0.22405 3.397,0.73962 2.923,1.50539 4.385,4.2361299 4.385,8.1923299 0.073,2.1919 -0.581,4.3465 -1.86,6.1281 -0.709,0.8692 -1.601,1.5715 -2.613,2.0567 -1.011,0.4852 -2.117,0.7415 -3.239,0.7505 -1.122,0.009 -2.232,-0.2294 -3.251,-0.6982 -1.019,-0.4689 -1.922,-1.1567 -2.645,-2.0144 v 0 z m 16.135,3.908 c 1.3,-1.3403 2.319,-2.9271 2.996,-4.6669 0.677,-1.7398 1,-3.5975 0.948,-5.4638 0.044,-1.8497 -0.281,-3.6896 -0.954,-5.4128999 -0.674,-1.72328 -1.683,-3.29558 -2.969,-4.62559 -2.737,-2.70174 -6.418,-4.23228904 -10.264,-4.26760804147 -3.845,-0.0353189985 -7.554,1.42735804147 -10.34,4.07837804147 -1.311,1.35273 -2.337,2.95469 -3.018,4.71107 -0.681,1.7563499 -1.002,3.6314499 -0.946,5.5143499 -0.048,1.8401 0.266,3.6718 0.925,5.3904 0.66,1.7187 1.651,3.2906 2.918,4.6261 2.748,2.7266 6.457,4.2661 10.329,4.2877 3.871,0.0216 7.597,-1.4765 10.375,-4.1723 v 0 z m 11.103,0.93 c 2.488,2.1044 5.644,3.2544 8.902,3.244 3.259,-0.0103 6.407,-1.1804 8.882,-3.3005 1.174,-1.0103 2.111,-2.2665 2.745,-3.6794 0.634,-1.413 0.95,-2.9482 0.924,-4.4968 V 3.2666931 c 0,-2.01077 -1.038,-3.01615004 -3.115,-3.01615004 -2.063,0 -3.095,1.00538004 -3.095,3.01615004 V 16.830123 c 0.02,0.8276 -0.123,1.6509 -0.421,2.4231 -0.299,0.7721 -0.746,1.4779 -1.318,2.0769 -1.234,1.2178 -2.895,1.9053 -4.628,1.9159 -1.734,0.0106 -3.403,-0.6566 -4.652,-1.8593 -0.569,-0.6104 -1.011,-1.3272 -1.302,-2.1092 -0.291,-0.782 -0.424,-1.6137 -0.392,-2.4474 V 3.2666931 c 0,-2.01077 -1.038,-3.01615004 -3.115,-3.01615004 -2.063,0 -3.094,1.00538004 -3.094,3.01615004 V 17.133623 c -0.029,1.5585 0.285,3.1044 0.921,4.5276 0.636,1.4231 1.578,2.6886 2.759,3.7062 v 0 z"
     id="path2"
     inkscape:connector-curvature="0"
     style="clip-rule:evenodd;fill:#ffe300;fill-rule:evenodd" />
  <path
     d="m 63.358561,25.651323 c -0.007,0.372 0.0713,0.7406 0.2289,1.0776 0.1577,0.3371 0.3904,0.6335 0.6804,0.8666 0.6034,0.5112 1.3727,0.7844 2.1634,0.7685 0.6545,0.0524 1.3071,-0.1223 1.8478,-0.4947 0.5408,-0.3724 0.9367,-0.9198 1.1211,-1.55 l 1.2542,-3.623 h 11.505 l 1.2335,3.6611 c 0.196,0.6337 0.6051,1.1801 1.158,1.5466 0.5528,0.3666 1.2154,0.5307 1.8754,0.4646 0.733,0.0123 1.4452,-0.2443 2.0019,-0.7212 0.2723,-0.2219 0.4904,-0.503 0.6375,-0.8219 0.1472,-0.319 0.2196,-0.6673 0.2118,-1.0185 -0.0196,-0.4963 -0.129,-0.985 -0.3231,-1.4423 l -8.13,-21.1361299 c -0.3017,-0.93723 -0.8931,-1.75457 -1.6888,-2.33438004 -0.7958,-0.57981 -1.7551,-0.892199 -2.7397,-0.892199 -0.9846,0 -1.9438,0.312389 -2.7396,0.892199 -0.7958,0.57981004 -1.3871,1.39715004 -1.6888,2.33438004 l -8.3296,21.1292299 c -0.1236,0.424 -0.2169,0.8562 -0.2793,1.2935 z m 13.0777,-19.5773399 3.8619,11.2684399 h -7.8646 l 3.9231,-11.2684399 h 0.0808 z m 16.5312,21.4557399 c 0.6315,0.5387 1.4343,0.8346 2.2644,0.8346 0.83,0 1.6329,-0.2959 2.2644,-0.8346 0.2815,-0.2871 0.5012,-0.6288 0.6454,-1.0041 0.1443,-0.3752 0.2101,-0.7761 0.1935,-1.1778 v -14.49 h 0.0807 l 13.123599,16.2358 c 0.339,0.3682 0.752,0.6594 1.213,0.8538 0.428,0.2427 0.904,0.3855 1.395,0.4177 0.416,0.0218 0.832,-0.0409 1.222,-0.1843 0.391,-0.1434 0.749,-0.3645 1.052,-0.6499 0.282,-0.287 0.502,-0.6286 0.646,-1.0039 0.145,-0.3753 0.211,-0.7762 0.194,-1.178 V 3.2666731 c 0,-2.01077 -1.038,-3.01615004 -3.115,-3.01615004 -2.062,0 -3.094,1.00538004 -3.094,3.01615004 V 17.949323 h -0.08 L 97.830861,1.5209031 c -0.3234,-0.37281 -0.7191,-0.67621004 -1.163,-0.89192004 -0.4445,-0.24067 -0.9404,-0.37087 -1.4458,-0.37962 -2.0623,0 -3.0935,1.00539004 -3.0935,3.01616004 V 25.347823 c -0.0167,0.4017 0.0491,0.8026 0.1934,1.1779 0.1442,0.3753 0.3639,0.717 0.6455,1.004 z m 29.846999,-0.1892 c 0.659,0.5477 1.499,0.8318 2.356,0.7973 h 7.197 c 1.878,0.0944 3.757,-0.1821 5.528,-0.8136 1.771,-0.6316 3.4,-1.6058 4.795,-2.8672 1.292,-1.2666 2.303,-2.7911 2.967,-4.4744 0.663,-1.6833 0.965,-3.4875 0.885,-5.2952 0.097,-1.8883 -0.191,-3.7766 -0.845,-5.5504999 -0.655,-1.77386 -1.662,-3.39645 -2.962,-4.76948 -2.588,-2.59231 -6.18,-3.88846004 -10.777,-3.88846004 h -6.869 c -0.852,-0.04281 -1.687,0.25005 -2.326,0.81577004 -0.292,0.28108 -0.52,0.62107 -0.67,0.9973 -0.15,0.37624 -0.218,0.78008 -0.199,1.18462 V 25.215123 c -0.016,0.4004 0.058,0.7993 0.217,1.167 0.16,0.3678 0.4,0.6949 0.703,0.9572 z m 9.069,-21.5123099 c 1.154,-0.08341 2.312,0.0892 3.391,0.50549 1.08,0.41629 2.054,1.06597 2.853,1.90259 1.385,1.75293 2.076,3.9546299 1.941,6.1846299 0.113,2.136 -0.555,4.2402 -1.881,5.9192 -0.735,0.8257 -1.649,1.473 -2.672,1.8928 -1.023,0.4199 -2.128,0.6012 -3.232,0.5303 h -4.185 V 5.8270531 h 3.781 z"
     id="path4"
     inkscape:connector-curvature="0"
     style="clip-rule:evenodd;fill:#ffffff;fill-rule:evenodd" />
  <path
     d="m 0.94335113,27.320923 c 0.66340997,0.557 1.51009997,0.8477 2.37576997,0.8157 h 8.5384399 c 2.4874,0.1367 4.9412,-0.6241 6.915,-2.1438 0.9001,-0.7701 1.6109,-1.737 2.0773,-2.8259 0.4664,-1.0889 0.6759,-2.2705 0.6123,-3.4533 0.0144,-0.8155 -0.1358,-1.6255 -0.4415,-2.3816 -0.3057,-0.7561 -0.7607,-1.4428 -1.3377,-2.0192 -1.2103,-1.2265 -2.7991,-2.0087 -4.5092,-2.22 v -0.0762 c 1.1612,-0.4244 2.1582,-1.2055 2.8484,-2.2312 0.6902,-1.0257999 1.0381,-2.2436099 0.9939,-3.4791499 0.0132,-0.97814 -0.2013,-1.94595 -0.6266,-2.82692 -1.3277,-2.67077 -3.7157,-4.00615004 -7.1642,-4.00615004 H 3.2787411 c -0.85695,-0.03811 -1.69825,0.23849 -2.36538997,0.77769004 -0.302727,0.263 -0.541916,0.59119 -0.699594,0.9599 -0.157679,0.36872 -0.2297469,0.76838 -0.21079,1.16894 V 25.177023 c -0.0141926,0.405 0.062968,0.808 0.225759,1.1792 0.162791,0.3711 0.407037,0.7008 0.714625,0.9647 z M 9.4460411,5.5997331 c 2.2377199,0 3.3565199,0.92308 3.3565199,2.76924 0.0213,0.41699 -0.0492,0.83355 -0.2065,1.22035 -0.1573,0.3868 -0.3976,0.7342999 -0.7039,1.0180999 -0.6832,0.5708 -1.557,0.8622 -2.4461199,0.8158 h -3.23077 V 5.5997331 Z M 10.599861,16.561323 c 2.9385,0 4.4077,1.018 4.4077,3.0542 0.0253,0.4725 -0.0591,0.9444 -0.2467,1.3788 -0.1876,0.4344 -0.4732,0.8195 -0.8344,1.125 -0.8049,0.6225 -1.8048,0.9386 -2.8212,0.892 H 6.2106611 v -6.45 h 4.3845999 z m 14.0931,10.7561 c 0.63,0.5526 1.447,0.8444 2.2846,0.8158 h 10.6766 c 0.77,0.0236 1.5206,-0.2438 2.1023,-0.7489 0.2757,-0.2377 0.4949,-0.5339 0.6418,-0.867 0.1469,-0.3332 0.2178,-0.6948 0.2074,-1.0587 0.0141,-0.3668 -0.0529,-0.7322 -0.1964,-1.0701 -0.1434,-0.3378 -0.3596,-0.6399 -0.6332,-0.8846 -0.5888,-0.506 -1.3473,-0.7703 -2.1231,-0.7396 h -7.6638 v -5.8961 h 6.7938 c 0.7873,0.0261 1.5569,-0.237 2.1635,-0.7396 0.2822,-0.2355 0.5073,-0.532 0.658,-0.8673 0.1507,-0.3352 0.2232,-0.7003 0.212,-1.0677 0.0217,-0.3731 -0.0416,-0.7462 -0.1851,-1.0912 -0.1435,-0.3449 -0.3635,-0.6528 -0.6434,-0.9004 -0.6259,-0.4921 -1.4086,-0.7413 -2.2038,-0.7015 h -6.795 V 5.8270431 h 7.2992 c 0.7635,0.01934 1.5059,-0.25204 2.0769,-0.75923 0.2741,-0.23713 0.4923,-0.53191 0.6391,-0.86323 0.1468,-0.33133 0.2186,-0.69101 0.2101,-1.05331 0.013,-0.36364 -0.0546,-0.72565 -0.1978,-1.06015 -0.1432,-0.3345 -0.3585,-0.63323 -0.6306,-0.87485 -0.5799,-0.50361004 -1.3289,-0.76909004 -2.0966,-0.74307004 h -10.2761 c -2.1539,0 -3.2308,1.12577004 -3.2308,3.37730004 V 25.215123 c -0.0125,0.3962 0.0625,0.7904 0.2197,1.1543 0.1571,0.364 0.3926,0.6888 0.6896,0.9515 z m 26.3781,0.2123 c 0.6315,0.5387 1.4344,0.8346 2.2644,0.8346 0.8301,0 1.6329,-0.2959 2.2644,-0.8346 0.2811,-0.2873 0.5003,-0.6291 0.6442,-1.0043 0.1439,-0.3753 0.2093,-0.7761 0.1924,-1.1776 V 5.8270431 h 4.5092 c 0.7587,0.04323 1.5042,-0.21231 2.0769,-0.71192 0.258,-0.2547 0.4589,-0.56125 0.5896,-0.89939 0.1307,-0.33814 0.1881,-0.70017 0.1685,-1.06215 0.0099,-0.35774 -0.0561,-0.71353 -0.1937,-1.04389 -0.1377,-0.33036 -0.3438,-0.62778 -0.6048,-0.87265 -0.2719,-0.25480004 -0.5915,-0.45343004 -0.9404,-0.58451004 -0.3489,-0.13107 -0.7202,-0.19201 -1.0926,-0.17933 h -15.2308 c -0.3701,-0.00929 -0.7384,0.05463 -1.0837,0.18809 -0.3454,0.13346 -0.6609,0.33383 -0.9286,0.58960004 -0.263,0.24024 -0.472,0.53355 -0.6132,0.86055 -0.1412,0.32699 -0.2115,0.68023 -0.2061,1.03637 -0.0161,0.35992 0.0441,0.71918 0.1765,1.05424 0.1324,0.33506 0.3342,0.63835 0.592,0.88999 0.5642,0.50644 1.3059,0.76902 2.0631,0.73039 h 4.5092 V 25.347823 c -0.0161,0.402 0.0504,0.8031 0.1955,1.1784 0.1451,0.3753 0.3656,0.7169 0.648,1.0035 z"
     id="path6"
     inkscape:connector-curvature="0"
     style="clip-rule:evenodd;fill:#ffbb04;fill-rule:evenodd" />
</svg>
