<svg width="264" height="78" viewBox="0 0 264 78" fill="none" xmlns="http://www.w3.org/2000/svg">
<g clip-path="url(#clip0_110:7)">
<path d="M253.736 77.2803H9.2C4.048 77.2803 0 73.2323 0 68.0803V9.2003C0 4.0483 4.048 0.000295225 9.2 0.000295225H253.736C258.888 -0.183705 262.936 3.8643 263.12 9.0163V9.2003V68.0803C263.12 73.2323 259.072 77.2803 253.92 77.2803H253.736Z" fill="#A6A6A6"/>
<path d="M253.736 75.4401H9.384C5.336 75.6241 2.024 72.3121 1.84 68.2641V68.0801V9.20009C1.84 5.15209 5.152 1.84009 9.2 1.84009H9.384H253.92C257.968 1.84009 261.464 5.15209 261.464 9.20009V68.0801C261.28 72.1281 257.968 75.4401 253.736 75.4401Z" fill="black"/>
<path d="M253.736 75.4401H9.384C5.336 75.6241 2.024 72.3121 1.84 68.2641V68.0801V9.20009C1.84 5.15209 5.152 1.84009 9.2 1.84009H9.384H253.92C257.968 1.84009 261.464 5.15209 261.464 9.20009V68.0801C261.28 72.1281 257.968 75.4401 253.736 75.4401Z" fill="black" fill-opacity="0.3"/>
<path d="M58.696 38.2721C58.696 32.0161 63.848 29.0721 64.032 28.8881C62.008 25.7601 58.512 23.9201 54.832 23.9201C51.152 23.5521 47.288 26.1281 45.448 26.1281C43.424 26.1281 40.48 23.9201 37.168 23.9201C32.936 23.9201 29.072 26.3121 27.048 30.1761C22.632 37.7201 25.944 48.9441 30.176 55.0161C32.2 57.9601 34.776 61.2721 37.904 61.2721C41.032 61.0881 42.32 59.2481 46 59.2481C49.864 59.2481 50.968 61.2721 54.096 61.0881C57.408 61.0881 59.616 58.1441 61.64 55.0161C64.032 51.5201 65.136 48.2081 65.136 48.0241C65.136 48.0241 58.696 45.6321 58.696 38.2721ZM52.44 19.8721C54.28 17.6641 55.2 14.9041 55.016 11.9601C52.624 12.1441 49.496 13.6161 47.656 15.6401C46 17.4801 44.712 20.4241 45.08 23.1841C47.84 23.5521 50.6 21.8961 52.44 19.8721Z" fill="white"/>
<path d="M104.328 60.9042H99.912L97.52 53.3602H89.056L86.664 60.9042H82.432L90.896 35.1442H96.048L104.328 60.9042ZM96.784 50.0482L94.576 43.4242L93.288 38.6402L92 43.4242L89.792 50.0482H96.784ZM125.856 51.3362C126.04 54.0962 125.12 56.8562 123.28 58.8802C121.808 60.5362 119.784 61.2722 117.576 61.2722C115.184 61.2722 113.344 60.3522 112.24 58.6962V68.4482H108.008V48.3922L107.824 42.3202H111.504L111.688 45.2642C112.976 43.0562 115.368 41.7682 117.944 41.9522C120.152 41.9522 121.992 42.8722 123.464 44.5282C125.12 46.3682 126.04 48.7602 125.856 51.3362ZM121.624 51.5202C121.624 49.6802 121.256 48.2082 120.336 47.1042C119.416 45.8162 118.312 45.2642 116.656 45.2642C115.552 45.2642 114.632 45.6322 113.896 46.1842C112.976 46.9202 112.608 47.6562 112.24 48.7602L112.056 50.0482V53.1762C112.056 54.4642 112.424 55.5682 113.344 56.6722C114.264 57.5922 115.184 58.1442 116.656 58.1442C118.128 58.1442 119.416 57.5922 120.336 56.3042C121.256 54.8322 121.624 53.1762 121.624 51.5202ZM147.2 51.3362C147.384 54.0962 146.464 56.8562 144.624 58.8802C143.152 60.5362 141.128 61.2722 138.92 61.2722C136.528 61.2722 134.688 60.3522 133.584 58.6962V68.4482H129.352V48.3922L129.168 42.3202H132.848L133.216 45.2642C134.504 43.0562 136.896 41.7682 139.472 41.9522C141.68 41.9522 143.52 42.8722 144.992 44.5282C146.464 46.1842 147.2 48.5762 147.2 51.3362ZM142.968 51.5202C142.968 49.6802 142.6 48.2082 141.68 47.1042C140.76 45.8162 139.656 45.2642 138 45.2642C136.896 45.2642 135.976 45.6322 135.24 46.1842C134.32 46.9202 133.952 47.6562 133.584 48.7602L133.4 50.0482V53.1762C133.4 54.4642 133.768 55.5682 134.688 56.6722C135.608 57.5922 136.528 58.1442 138 58.1442C139.472 58.1442 140.76 57.5922 141.68 56.3042C142.6 55.0162 142.968 53.5442 142.968 51.5202ZM171.304 53.5442C171.304 55.7522 170.568 57.5922 169.096 58.8802C167.44 60.3522 165.048 61.0882 162.104 61.0882C159.344 61.0882 157.136 60.5362 155.48 59.4322L156.4 55.9362C158.24 57.0402 160.264 57.5922 162.472 57.5922C163.944 57.5922 165.232 57.2242 166.152 56.4882C167.072 55.7522 167.44 54.8322 167.44 53.7282C167.44 52.6242 167.072 51.8882 166.336 51.1522C165.6 50.4162 164.496 49.8642 162.84 49.1282C158.24 47.4722 156.032 45.0802 156.032 41.7682C156.032 39.7442 156.768 37.9042 158.424 36.6162C160.08 35.3282 162.104 34.5922 164.68 34.5922C167.072 34.5922 168.912 34.9602 170.568 35.8802L169.464 39.1922C167.992 38.4562 166.152 38.0882 164.496 38.0882C163.024 38.0882 161.92 38.4562 161 39.1922C160.264 39.7442 159.896 40.6642 159.896 41.5842C159.896 42.6882 160.264 43.4242 161 44.1602L164.68 46.1842C166.52 46.9202 168.176 47.8402 169.648 49.3122C170.752 50.4162 171.304 51.8882 171.304 53.5442ZM184.92 45.4482H180.32V54.4642C180.32 56.6722 181.056 57.9602 182.712 57.9602L184.552 57.7762L184.736 60.9042C184 61.2722 182.896 61.2722 181.424 61.2722C179.768 61.2722 178.48 60.7202 177.56 59.8002C176.64 58.8802 176.088 57.2242 176.088 54.8322V45.4482H173.696V42.3202H176.456V39.0082L180.504 37.7202V42.3202H185.104V45.4482H184.92ZM205.528 51.3362C205.528 54.0962 204.792 56.4882 203.136 58.3282C201.48 60.1682 199.088 61.0882 196.328 61.0882C193.568 61.0882 191.36 60.1682 189.704 58.3282C188.048 56.4882 187.312 54.2802 187.312 51.5202C187.312 48.5762 188.232 46.3682 189.888 44.5282C191.544 42.6882 193.752 41.7682 196.696 41.7682C199.456 41.7682 201.664 42.6882 203.32 44.5282C204.792 46.3682 205.528 48.5762 205.528 51.3362ZM201.296 51.5202C201.296 49.8642 200.928 48.3922 200.192 47.1042C199.272 45.6322 198.168 44.8962 196.512 44.8962C194.856 44.8962 193.568 45.6322 192.648 47.1042C191.912 48.3922 191.544 49.8642 191.544 51.5202C191.544 53.1762 191.912 54.6482 192.648 55.9362C193.568 57.4082 194.856 58.1442 196.328 58.1442C197.984 58.1442 199.088 57.4082 200.008 55.9362C200.928 54.8322 201.296 53.1762 201.296 51.5202ZM219.144 46.0002L217.856 45.8162C216.568 45.8162 215.28 46.3682 214.544 47.4722C213.808 48.3922 213.44 49.6802 213.44 51.1522V60.9042H209.208V48.2082L209.024 42.3202H212.704L212.888 45.8162H213.072C213.44 44.7122 214.176 43.6082 215.096 42.8722C216.016 42.1362 216.936 41.9522 218.04 41.9522H219.144V46.0002ZM237.728 50.7842L237.544 52.6242H225.032C225.032 54.2802 225.584 55.7522 226.872 56.8562C227.976 57.7762 229.264 58.1442 230.92 58.1442C232.76 58.1442 234.416 57.7762 235.888 57.2242L236.624 60.1682C234.6 60.9042 232.576 61.2722 230.368 61.2722C227.792 61.4562 225.4 60.5362 223.56 58.6962C221.904 56.8562 220.984 54.4642 221.168 51.8882C221.168 49.1282 221.904 46.7362 223.56 44.8962C225.032 42.8722 227.424 41.9522 230 41.9522C232.76 41.9522 234.784 42.8722 236.072 44.8962C237.176 46.3682 237.728 48.3922 237.728 50.7842ZM233.68 49.6802C233.68 48.5762 233.496 47.4722 232.944 46.5522C232.208 45.4482 230.92 44.8962 229.632 44.8962C228.344 44.8962 227.24 45.4482 226.32 46.5522C225.584 47.4722 225.216 48.5762 225.032 49.6802H233.68Z" fill="white"/>
<path d="M95.496 19.32C95.496 21.528 94.76 23.368 93.472 24.472C92.184 25.576 90.344 26.128 87.952 26.128L85.008 25.944V13.432L88.504 13.248C90.712 13.248 92.368 13.8 93.472 14.72C94.944 15.824 95.496 17.296 95.496 19.32ZM93.288 19.32C93.288 17.848 92.92 16.744 92.184 16.008C91.448 15.272 90.16 14.904 88.688 14.904L87.032 15.088V24.472H88.504C89.976 24.472 91.264 24.104 92.184 23.184C92.92 22.264 93.288 20.976 93.288 19.32ZM106.904 21.344C106.904 22.816 106.536 23.92 105.616 24.84C104.696 25.76 103.592 26.312 102.304 26.312C101.016 26.312 99.912 25.944 99.176 25.024C98.256 23.92 97.888 22.816 97.888 21.528C97.888 20.056 98.256 18.952 99.176 18.032C99.912 17.112 101.016 16.744 102.488 16.744C103.776 16.744 104.88 17.112 105.8 18.032C106.536 18.768 106.904 19.872 106.904 21.344ZM104.696 21.344C104.696 20.424 104.512 19.872 104.144 19.136C103.776 18.4 103.04 18.032 102.304 18.032C101.568 18.032 100.832 18.4 100.464 19.136L99.912 21.344C99.912 22.264 100.096 22.816 100.464 23.552C100.832 24.288 101.568 24.656 102.304 24.656C103.04 24.656 103.776 24.288 104.144 23.552C104.512 23 104.696 22.264 104.696 21.344ZM122.176 16.928L119.232 25.944H117.392L116.288 22.08L115.552 19.136L114.816 22.08L113.528 25.944H111.688L108.928 16.928H110.952L112.056 21.344L112.608 24.288L113.344 21.344L114.632 16.928H116.288L117.576 21.16L118.312 24.104L118.864 21.16L119.968 16.928H122.176ZM132.664 25.944H130.64V20.792C130.64 19.136 130.088 18.4 128.8 18.4C128.248 18.4 127.696 18.584 127.328 19.136C126.96 19.504 126.776 20.056 126.776 20.608V25.944H124.752V19.504V16.928H126.592L126.776 18.4L127.88 17.296C128.432 16.928 128.984 16.744 129.72 16.744C130.64 16.744 131.376 16.928 131.928 17.48C132.664 18.216 133.032 19.136 133.032 20.424V25.944H132.664ZM138.368 25.944H136.344V12.696H138.368V25.944ZM150.328 21.344C150.328 22.816 149.96 23.92 149.04 24.84C148.12 25.76 147.016 26.312 145.728 26.312C144.44 26.312 143.336 25.944 142.6 25.024C141.864 24.104 141.312 23 141.312 21.712C141.312 20.24 141.68 19.136 142.6 18.216C143.336 17.296 144.624 16.928 145.912 16.928C147.2 16.928 148.304 17.296 149.224 18.216C149.96 18.768 150.328 19.872 150.328 21.344ZM148.304 21.344C148.304 20.424 148.12 19.872 147.752 19.136C147.384 18.4 146.648 18.032 145.912 18.032C145.176 18.032 144.44 18.4 144.072 19.136C143.704 19.688 143.52 20.424 143.52 21.344C143.52 22.264 143.704 22.816 144.072 23.552C144.44 24.288 145.176 24.656 145.912 24.656C146.648 24.656 147.384 24.288 147.752 23.552C148.12 23 148.304 22.264 148.304 21.344ZM160.264 25.944H158.424L158.24 24.84C157.688 25.76 156.768 26.128 155.48 26.128C154.56 26.128 153.824 25.944 153.456 25.392C152.904 24.84 152.72 24.288 152.72 23.552C152.72 22.448 153.272 21.528 154.192 20.976C155.296 20.24 156.768 20.056 158.056 20.056V19.872C158.056 18.584 157.504 18.032 156.216 18.032C155.296 18.032 154.56 18.216 153.824 18.768L153.456 17.48C154.376 16.928 155.48 16.744 156.584 16.744C158.976 16.744 160.264 18.032 160.264 20.424V23.736V25.944ZM158.056 22.816V21.344C155.848 21.344 154.744 21.896 154.744 23.184L155.112 24.288L156.216 24.656L157.504 24.288L158.24 23.184L158.056 22.816ZM171.856 25.944H170.016L169.832 24.472C169.28 25.576 168.36 26.128 166.888 26.128C165.784 26.128 164.864 25.76 164.128 24.84C163.392 23.92 163.024 22.816 163.024 21.528C163.024 20.056 163.392 18.952 164.128 18.032C164.864 17.112 165.784 16.744 166.888 16.744C168.176 16.744 168.912 17.112 169.464 18.032V12.696H171.488V23.552L171.856 25.944ZM169.648 22.08V20.608V20.056L168.912 18.768C168.544 18.4 168.176 18.216 167.624 18.216C166.888 18.216 166.336 18.584 165.784 19.136C165.416 19.688 165.048 20.424 165.048 21.528C165.048 22.448 165.232 23.184 165.6 23.736C165.968 24.288 166.704 24.656 167.44 24.656C168.176 24.656 168.728 24.472 169.096 23.92C169.464 23.368 169.648 22.816 169.648 22.08ZM189.336 21.344C189.336 22.816 188.968 23.92 188.048 24.84C187.128 25.76 186.024 26.312 184.736 26.312C183.448 26.312 182.344 25.944 181.608 25.024C180.872 24.104 180.32 23 180.32 21.712C180.32 20.24 180.688 19.136 181.608 18.216C182.344 17.112 183.448 16.744 184.92 16.744C186.208 16.744 187.312 17.112 188.232 18.032C188.784 18.768 189.336 19.872 189.336 21.344ZM187.128 21.344C187.128 20.424 186.944 19.872 186.576 19.136C186.208 18.4 185.472 18.032 184.736 18.032C184 18.032 183.264 18.4 182.896 19.136C182.528 19.688 182.344 20.424 182.344 21.344C182.344 22.264 182.528 22.816 182.896 23.552C183.264 24.288 184 24.656 184.736 24.656C185.472 24.656 186.208 24.288 186.576 23.552C186.944 23 187.128 22.264 187.128 21.344ZM200.192 25.944H198.168V20.792C198.168 19.136 197.616 18.4 196.328 18.4C195.776 18.4 195.224 18.584 194.856 19.136C194.488 19.504 194.304 20.056 194.304 20.608V25.944H192.28V19.504V16.928H194.12V18.216L195.224 17.112C195.776 16.744 196.328 16.56 197.064 16.56C197.984 16.56 198.72 16.744 199.272 17.296C200.008 18.032 200.376 18.952 200.376 20.24L200.192 25.944ZM213.992 18.4H211.784V22.816C211.784 23.92 212.152 24.472 212.888 24.472L213.808 24.288V25.76L212.152 25.944C211.416 25.944 210.68 25.76 210.312 25.208C209.944 24.656 209.576 23.92 209.576 22.816V18.4H208.288V16.928H209.576V15.088L211.6 14.536V16.744H213.808L213.992 18.4ZM224.664 25.944H222.64V20.792C222.64 19.136 222.088 18.4 220.8 18.4C219.88 18.4 219.144 18.952 218.776 19.872L218.592 20.608V26.128H216.568V12.696H218.592V18.216C219.144 17.296 220.064 16.744 221.352 16.744C222.272 16.744 222.824 16.928 223.376 17.48C224.112 18.216 224.48 19.136 224.48 20.608L224.664 25.944ZM235.888 20.976V21.896H229.816C229.816 22.816 230.184 23.552 230.736 23.92C231.288 24.288 231.84 24.472 232.76 24.472L235.152 24.104L235.52 25.576C234.6 25.944 233.68 26.128 232.392 26.128C230.92 26.128 229.816 25.76 229.08 24.84C228.344 23.92 227.792 22.816 227.792 21.528C227.792 20.24 228.16 18.952 228.896 18.032C229.632 17.112 230.736 16.56 232.024 16.56C233.312 16.56 234.416 17.112 234.968 18.032C235.52 18.952 235.888 19.872 235.888 20.976ZM233.864 20.424L233.496 18.952C233.128 18.4 232.576 18.032 231.84 18.032C231.104 18.032 230.552 18.216 230.184 18.768C229.816 19.136 229.632 19.688 229.632 20.424H233.864Z" fill="white"/>
</g>
<defs>
<clipPath id="clip0_110:7">
<rect width="263.12" height="77.28" fill="white"/>
</clipPath>
</defs>
</svg>
