<svg width="140" height="25" viewBox="0 0 140 25" fill="none" xmlns="http://www.w3.org/2000/svg">
<path fill-rule="evenodd" clip-rule="evenodd" d="M79.4853 24.7847C81.2691 24.7847 82.1606 23.9654 82.1597 22.3268V13.3044L88.9449 4.3153C89.2735 3.87926 89.4456 3.34431 89.4335 2.79737C89.4421 2.46977 89.3816 2.14403 89.2571 1.84137C89.1317 1.5387 88.9449 1.26589 88.708 1.04067C88.1295 0.539202 87.3764 0.289242 86.6137 0.345672C85.852 0.402101 85.1429 0.760304 84.6431 1.34165L79.4853 8.40157L74.3283 1.34165C74.0689 1.00326 73.7308 0.734576 73.3425 0.559539C72.9551 0.384494 72.5306 0.308527 72.1069 0.338394C71.7679 0.328621 71.4307 0.387842 71.1159 0.512491C70.8003 0.637141 70.5132 0.824655 70.2711 1.06375C70.0368 1.28566 69.85 1.55411 69.7238 1.85215C69.5975 2.1502 69.5336 2.47137 69.537 2.79536C69.5258 3.34241 69.6978 3.87735 70.0273 4.31329L76.7926 13.3024V22.3247C76.7926 23.9634 77.6902 24.7827 79.4861 24.7827L79.4853 24.7847ZM96.9693 17.9726C95.7985 16.4206 95.1992 14.5085 95.2727 12.5621C95.2062 10.6623 95.7725 8.79458 96.8828 7.25583C97.4742 6.45931 98.2499 5.8194 99.1422 5.3912C100.035 4.96301 101.017 4.75938 102.004 4.79785C103.021 4.77208 104.029 4.99266 104.942 5.44094C107.469 6.74986 108.733 9.1242 108.733 12.5641C108.796 14.4699 108.231 16.3433 107.125 17.8924C106.512 18.6481 105.741 19.2588 104.866 19.6806C103.991 20.1025 103.035 20.3254 102.065 20.3332C101.095 20.341 100.135 20.1337 99.2538 19.7261C98.3726 19.3184 97.5918 18.7204 96.9667 17.9746L96.9693 17.9726ZM110.921 21.3706C112.045 20.2052 112.926 18.8255 113.512 17.3128C114.097 15.8 114.376 14.1848 114.331 12.5621C114.369 10.9538 114.088 9.35401 113.506 7.85562C112.924 6.35725 112.051 4.99016 110.939 3.83373C108.573 1.4846 105.39 0.153811 102.064 0.123102C98.7393 0.0923927 95.5321 1.36417 93.1231 3.6692C91.9895 4.84538 91.1023 6.23826 90.5135 7.76541C89.9246 9.29254 89.6471 10.9229 89.6955 12.5601C89.654 14.16 89.9255 15.7526 90.4953 17.2469C91.066 18.7413 91.9229 20.1081 93.0185 21.2693C95.3947 23.64 98.6018 24.9786 101.95 24.9974C105.297 25.0162 108.519 23.7136 110.921 21.3696V21.3706ZM120.522 22.1792C122.673 24.0089 125.402 25.0089 128.219 24.9998C131.037 24.9909 133.759 23.9735 135.899 22.1301C136.914 21.2516 137.725 20.1594 138.273 18.9309C138.821 17.7023 139.094 16.3675 139.072 15.021V2.96291C139.072 1.21457 138.174 0.340402 136.378 0.340402C134.594 0.340402 133.702 1.21457 133.702 2.96291V14.7561C133.719 15.4757 133.596 16.1916 133.338 16.863C133.08 17.5343 132.693 18.148 132.198 18.6688C131.131 19.7277 129.695 20.3255 128.197 20.3347C126.697 20.3439 125.254 19.7638 124.174 18.718C123.682 18.1873 123.3 17.5641 123.048 16.8841C122.797 16.2042 122.682 15.481 122.709 14.7561V2.96291C122.709 1.21457 121.812 0.340402 120.016 0.340402C118.232 0.340402 117.34 1.21457 117.34 2.96291V15.02C117.315 16.3751 117.587 17.7193 118.137 18.9567C118.687 20.1941 119.501 21.2944 120.523 22.1792H120.522Z" fill="#FFE300"/>
<path fill-rule="evenodd" clip-rule="evenodd" d="M66.4342 24.9379C66.5457 24.94 66.6562 24.9165 66.7572 24.8693C66.8583 24.822 66.9471 24.7522 67.017 24.6653C67.1702 24.4845 67.2521 24.2539 67.2473 24.0169C67.263 23.8207 67.2107 23.6251 67.099 23.4631C66.9874 23.301 66.8233 23.1823 66.6345 23.127L65.5486 22.7511L65.5486 19.3028L66.6459 18.933C66.8358 18.8743 66.9996 18.7517 67.1094 18.586C67.2193 18.4203 67.2685 18.2217 67.2487 18.0239C67.2524 17.8042 67.1755 17.5907 67.0325 17.4238C66.966 17.3422 66.8818 17.2768 66.7862 17.2328C66.6906 17.1886 66.5862 17.1669 66.4809 17.1693C66.3322 17.1751 66.1857 17.2079 66.0486 17.2661L59.7136 19.7029C59.4326 19.7933 59.1877 19.9706 59.0139 20.2091C58.8401 20.4476 58.7465 20.7351 58.7465 21.0302C58.7465 21.3253 58.8401 21.6128 59.0139 21.8514C59.1877 22.0899 59.4326 22.2671 59.7136 22.3575L66.0465 24.8541C66.1736 24.8912 66.3032 24.9192 66.4342 24.9379ZM60.5664 21.0181L63.9438 19.8606L63.9438 22.2178L60.5664 21.042L60.5664 21.0178L60.5664 21.0181ZM66.9973 16.0633C67.1587 15.874 67.2474 15.6334 67.2474 15.3846C67.2474 15.1358 67.1587 14.8952 66.9973 14.7059C66.9112 14.6215 66.8088 14.5557 66.6963 14.5124C66.5838 14.4692 66.4637 14.4495 66.3433 14.4544L62.0002 14.4544L62.0002 14.4302L66.8665 10.4968C66.9769 10.3951 67.0642 10.2714 67.1224 10.1332C67.1952 10.0049 67.238 9.86223 67.2476 9.71507C67.2542 9.59038 67.2354 9.46569 67.1924 9.3488C67.1494 9.23161 67.0832 9.1243 66.9976 9.03349C66.9116 8.94896 66.8092 8.88302 66.6967 8.83986C66.5842 8.7964 66.4641 8.77662 66.3436 8.78172L59.725 8.78172C59.1223 8.78172 58.8209 9.09283 58.8209 9.71537C58.8209 10.3334 59.1223 10.6427 59.725 10.6427L64.1257 10.6427L64.1257 10.6667L59.2017 14.6056C59.09 14.7025 58.999 14.8211 58.9344 14.9542C58.8622 15.0874 58.8232 15.236 58.8206 15.3875C58.8206 16.0056 59.1219 16.3147 59.7246 16.3147L66.3433 16.3147C66.4637 16.3197 66.5838 16.3 66.6963 16.2568C66.8088 16.2135 66.9112 16.1477 66.9973 16.0633ZM66.9405 7.11733C67.1047 6.91981 67.1899 6.66804 67.1795 6.41118L67.1795 4.25404C67.2078 3.69116 67.1249 3.12797 66.9357 2.59715C66.7463 2.06634 66.4544 1.57808 66.0763 1.15996C65.6966 0.772717 65.2397 0.469695 64.7352 0.270676C64.2307 0.0719574 63.6899 -0.0185629 63.1481 0.00541522C62.5821 -0.0236583 62.0161 0.0626635 61.4844 0.258685C60.9528 0.455006 60.4664 0.756832 60.0549 1.14648C59.2779 1.92217 58.8894 2.99879 58.8894 4.37663L58.8894 6.43545C58.8766 6.69082 58.9644 6.9411 59.1339 7.13262C59.2182 7.22014 59.3201 7.28848 59.4328 7.33344C59.5456 7.3784 59.6667 7.39878 59.7879 7.39308L66.3035 7.39308C66.4235 7.39788 66.5431 7.3757 66.6533 7.32804C66.7635 7.28009 66.8616 7.20815 66.9402 7.11733L66.9405 7.11733ZM60.4927 4.39911C60.4677 4.05323 60.5195 3.70614 60.6442 3.38274C60.769 3.05903 60.9637 2.7671 61.2145 2.52762C61.7399 2.1125 62.3998 1.90538 63.0682 1.94585C63.7084 1.91198 64.3391 2.1122 64.8423 2.50964C65.0898 2.72993 65.2838 3.00388 65.4097 3.3105C65.5355 3.61713 65.5899 3.94832 65.5686 4.27922L65.5686 5.53358L60.4924 5.53358L60.4924 4.40031L60.4927 4.39911Z" fill="white"/>
<path fill-rule="evenodd" clip-rule="evenodd" d="M0.842244 24.0693C1.43455 24.5661 2.19049 24.8253 2.96338 24.7968H10.5867C12.8075 24.9187 14.9983 24.2402 16.7605 22.8849C17.5642 22.1981 18.1988 21.3358 18.6152 20.3647C19.0316 19.3935 19.2187 18.3398 19.1619 17.2849C19.1747 16.5576 19.0406 15.8352 18.7677 15.1609C18.4948 14.4866 18.0885 13.8742 17.5734 13.3601C16.4928 12.2663 15.0743 11.5687 13.5475 11.3803V11.3123C14.5842 10.9338 15.4743 10.2372 16.0906 9.32243C16.7068 8.40759 17.0174 7.32151 16.9779 6.21961C16.9897 5.34728 16.7982 4.48415 16.4185 3.69847C15.2331 1.31659 13.101 0.125656 10.0222 0.125656H2.92733C2.16223 0.0916681 1.4111 0.338349 0.815459 0.819226C0.545178 1.05378 0.331625 1.34647 0.190847 1.6753C0.0500677 2.00413 -0.014276 2.36056 0.00264911 2.7178V22.1573C-0.0100223 22.5185 0.0588683 22.8779 0.204212 23.209C0.349555 23.5399 0.567623 23.834 0.842244 24.0693ZM8.43363 4.69766C10.4315 4.69766 11.4304 5.5209 11.4304 7.16736C11.4494 7.53925 11.3865 7.91075 11.246 8.25571C11.1056 8.60067 10.891 8.91059 10.6176 9.16369C10.0076 9.67275 9.22745 9.93263 8.43363 9.89125H5.54913V4.69766H8.43363ZM9.46378 14.4736C12.0873 14.4736 13.3991 15.3815 13.3991 17.1974C13.4217 17.6188 13.3463 18.0397 13.1788 18.4271C13.0113 18.8145 12.7563 19.1579 12.4338 19.4304C11.7152 19.9855 10.8225 20.2675 9.91501 20.2259H5.54501V14.4736H9.45968H9.46378ZM22.0464 24.0662C22.6089 24.559 23.3383 24.8193 24.0861 24.7938H33.6184C34.3059 24.8148 34.9761 24.5763 35.4954 24.1259C35.7416 23.9139 35.9373 23.6497 36.0684 23.3527C36.1996 23.0555 36.2629 22.733 36.2536 22.4085C36.2662 22.0814 36.2064 21.7555 36.0783 21.4541C35.9502 21.1529 35.7572 20.8834 35.5129 20.6652C34.9872 20.2139 34.31 19.9782 33.6174 20.0056H26.775V14.7473H32.8406C33.5435 14.7706 34.2306 14.5359 34.7722 14.0877C35.0242 13.8777 35.2252 13.6132 35.3597 13.3142C35.4943 13.0152 35.559 12.6896 35.549 12.362C35.5684 12.0292 35.5118 11.6965 35.3837 11.3888C35.2556 11.0812 35.0592 10.8066 34.8093 10.5858C34.2505 10.1469 33.5517 9.92469 32.8417 9.96018H26.775V4.90039H33.2918C33.9735 4.91764 34.6363 4.67561 35.1461 4.22328C35.3909 4.0118 35.5857 3.74891 35.7167 3.45342C35.8478 3.15793 35.9119 2.83716 35.9043 2.51405C35.9159 2.18974 35.8556 1.86689 35.7277 1.56857C35.5999 1.27025 35.4077 1.00383 35.1647 0.78835C34.647 0.339214 33.9782 0.10245 33.2928 0.125656H24.1181C22.1951 0.125656 21.2336 1.12965 21.2336 3.13764V22.1913C21.2224 22.5447 21.2894 22.8962 21.4297 23.2208C21.57 23.5454 21.7803 23.8351 22.0454 24.0693L22.0464 24.0662ZM45.5973 24.2556C46.1612 24.736 46.878 24.9999 47.619 24.9999C48.3602 24.9999 49.0769 24.736 49.6407 24.2556C49.8917 23.9993 50.0874 23.6945 50.2159 23.3599C50.3444 23.0252 50.4028 22.6677 50.3877 22.3097V4.90039H54.4136C55.091 4.93894 55.7566 4.71104 56.2679 4.26547C56.4982 4.03832 56.6776 3.76493 56.7943 3.46337C56.911 3.1618 56.9622 2.83893 56.9447 2.51611C56.9536 2.19706 56.8946 1.87976 56.7718 1.58513C56.6489 1.29051 56.4648 1.02526 56.2318 0.806874C55.9891 0.579635 55.7037 0.40249 55.3922 0.285588C55.0807 0.168696 54.7492 0.114347 54.4167 0.125656H40.8183C40.4879 0.117371 40.1591 0.174377 39.8508 0.293401C39.5424 0.412425 39.2607 0.591121 39.0217 0.819226C38.7869 1.03348 38.6003 1.29506 38.4742 1.58669C38.3482 1.87831 38.2854 2.19334 38.2902 2.51096C38.2758 2.83195 38.3296 3.15235 38.4478 3.45117C38.566 3.74999 38.7462 4.02047 38.9764 4.24489C39.4801 4.69655 40.1423 4.93073 40.8183 4.89628H44.8442V22.3097C44.8299 22.6682 44.8892 23.0259 45.0188 23.3606C45.1483 23.6953 45.3452 24 45.5973 24.2556Z" fill="#FFBB04"/>
</svg>
