<svg width="21" height="22" viewBox="0 0 21 22" fill="none" xmlns="http://www.w3.org/2000/svg">
<g clip-path="url(#clip0_4_1022)">
<path fill-rule="evenodd" clip-rule="evenodd" d="M1.75147 11.0727C1.75147 13.4412 2.69238 15.7128 4.36722 17.3876C6.04206 19.0625 8.31363 20.0034 10.6822 20.0034C13.0508 20.0034 15.3224 19.0625 16.9972 17.3876C18.672 15.7128 19.613 13.4412 19.613 11.0727C19.613 8.70407 18.672 6.4325 16.9972 4.75766C15.3224 3.08282 13.0508 2.14191 10.6822 2.14191C8.31363 2.14191 6.04206 3.08282 4.36722 4.75766C2.69238 6.4325 1.75147 8.70407 1.75147 11.0727ZM20.8888 11.0727C20.8888 13.7796 19.8134 16.3757 17.8993 18.2898C15.9852 20.2039 13.3892 21.2792 10.6822 21.2792C7.97526 21.2792 5.37918 20.2039 3.46508 18.2898C1.55098 16.3757 0.475647 13.7796 0.475647 11.0727C0.475647 8.3657 1.55098 5.76962 3.46508 3.85552C5.37918 1.94142 7.97526 0.866089 10.6822 0.866089C13.3892 0.866089 15.9852 1.94142 17.8993 3.85552C19.8134 5.76962 20.8888 8.3657 20.8888 11.0727ZM11.3201 6.60728C11.3201 6.4381 11.2529 6.27584 11.1333 6.15621C11.0137 6.03658 10.8514 5.96937 10.6822 5.96937C10.513 5.96937 10.3508 6.03658 10.2311 6.15621C10.1115 6.27584 10.0443 6.4381 10.0443 6.60728V13.9981L7.30639 11.2589C7.18661 11.1391 7.02415 11.0718 6.85475 11.0718C6.68535 11.0718 6.52289 11.1391 6.40311 11.2589C6.28333 11.3787 6.21603 11.5412 6.21603 11.7106C6.21603 11.88 6.28333 12.0424 6.40311 12.1622L10.2306 15.9897C10.2898 16.0491 10.3602 16.0962 10.4377 16.1284C10.5152 16.1605 10.5983 16.1771 10.6822 16.1771C10.7661 16.1771 10.8492 16.1605 10.9267 16.1284C11.0042 16.0962 11.0746 16.0491 11.1339 15.9897L14.9613 12.1622C15.0811 12.0424 15.1484 11.88 15.1484 11.7106C15.1484 11.5412 15.0811 11.3787 14.9613 11.2589C14.8415 11.1391 14.6791 11.0718 14.5097 11.0718C14.3403 11.0718 14.1778 11.1391 14.058 11.2589L11.3201 13.9981V6.60728Z" fill="#9B9B9B"/>
</g>
<defs>
<clipPath id="clip0_4_1022">
<rect width="20.4131" height="20.4131" fill="white" transform="translate(0.475647 0.866089)"/>
</clipPath>
</defs>
</svg>
