<svg width="18" height="15" viewBox="0 0 18 15" fill="none" xmlns="http://www.w3.org/2000/svg">
<path d="M0.875488 13.8343C0.875488 14.148 1.17896 14.4014 1.55458 14.4014H17.1738C17.5494 14.4014 17.8529 14.148 17.8529 13.8343V6.39111H0.875488V13.8343ZM17.1738 1.49986H13.6086V0.365652C13.6086 0.287676 13.5322 0.223877 13.4388 0.223877H12.2504C12.157 0.223877 12.0806 0.287676 12.0806 0.365652V1.49986H6.64781V0.365652C6.64781 0.287676 6.57141 0.223877 6.47804 0.223877H5.28962C5.19624 0.223877 5.11984 0.287676 5.11984 0.365652V1.49986H1.55458C1.17896 1.49986 0.875488 1.75328 0.875488 2.06696V5.18602H17.8529V2.06696C17.8529 1.75328 17.5494 1.49986 17.1738 1.49986Z" fill="url(#paint0_linear_102_21)"/>
<defs>
<linearGradient id="paint0_linear_102_21" x1="9.31147" y1="14.4014" x2="9.31147" y2="0.223877" gradientUnits="userSpaceOnUse">
<stop offset="0.00248286" stop-color="#0354FF"/>
<stop offset="0.00258286" stop-color="#0354FF"/>
<stop offset="1" stop-color="#1795F9"/>
</linearGradient>
</defs>
</svg>
