<svg width="20" height="21" viewBox="0 0 20 21" fill="none" xmlns="http://www.w3.org/2000/svg">
<path d="M9.99213 0.312744C4.48513 0.312744 0.00482178 4.79874 0.00482178 10.3127C0.00482178 15.8267 4.48513 20.3127 9.99213 20.3127C15.4991 20.3127 19.9794 15.8267 19.9794 10.3127C19.9794 4.79874 15.4991 0.312744 9.99213 0.312744ZM9.99213 18.3127C5.58673 18.3127 2.00228 14.7237 2.00228 10.3127C2.00228 5.90174 5.58673 2.31274 9.99213 2.31274C14.3975 2.31274 17.982 5.90174 17.982 10.3127C17.982 14.7237 14.3975 18.3127 9.99213 18.3127Z" fill="url(#paint0_linear_244_8)"/>
<path d="M10.9908 5.31274H8.99341V11.3127H14.9855V9.31274H10.9908V5.31274Z" fill="url(#paint1_linear_244_8)"/>
<defs>
<linearGradient id="paint0_linear_244_8" x1="10.0542" y1="20.3127" x2="10.0542" y2="-12.1873" gradientUnits="userSpaceOnUse">
<stop stop-color="#FF0034"/>
<stop offset="0.0001" stop-color="#F40F3E"/>
<stop offset="1" stop-color="#FFA4A4"/>
</linearGradient>
<linearGradient id="paint1_linear_244_8" x1="12.008" y1="11.3127" x2="12.008" y2="5.31274" gradientUnits="userSpaceOnUse">
<stop stop-color="#FF0034"/>
<stop offset="0.0001" stop-color="#F40F3E"/>
<stop offset="1" stop-color="#FFA4A4"/>
</linearGradient>
</defs>
</svg>
