<?xml version="1.0" encoding="utf-8"?>
<!-- Generator: Adobe Illustrator 23.0.3, SVG Export Plug-In . SVG Version: 6.00 Build 0)  -->
<svg version="1.1" id="Слой_1" xmlns="http://www.w3.org/2000/svg" xmlns:xlink="http://www.w3.org/1999/xlink" x="0px" y="0px"
	 viewBox="0 0 120 120" style="enable-background:new 0 0 120 120;" xml:space="preserve">
<style type="text/css">
	.st0{fill-rule:evenodd;clip-rule:evenodd;fill:#232325;}
	.st1{fill:#FFBB04;}
	.st2{fill:#FFFFFF;}
	.st3{fill:#FFE300;}
</style>
<g>
	<rect x="-0.01" y="0.06" class="st0" width="120.01" height="120.02"/>
	<path class="st1" d="M36.69,63.1c-1.95-1.98-4.52-3.24-7.28-3.59v-0.12c1.88-0.69,3.49-1.95,4.6-3.6c1.11-1.66,1.68-3.62,1.61-5.62
		c0.02-1.58-0.33-3.14-1.01-4.57c-2.14-4.31-6-6.47-11.57-6.47H10.19c-1.38-0.06-2.74,0.39-3.82,1.26
		c-0.49,0.42-0.88,0.95-1.13,1.55c-0.25,0.6-0.37,1.24-0.34,1.89v35.21c-0.02,0.65,0.1,1.31,0.36,1.9c0.26,0.6,0.66,1.13,1.15,1.56
		c1.07,0.9,2.44,1.37,3.84,1.32h13.79c4.02,0.22,7.98-1.01,11.17-3.46c1.45-1.24,2.6-2.81,3.36-4.56c0.75-1.76,1.09-3.67,0.99-5.58
		c0.02-1.32-0.22-2.63-0.71-3.85C38.35,65.14,37.62,64.03,36.69,63.1z M14.93,47.41h5.22c3.61,0,5.42,1.49,5.42,4.47
		c0.03,0.67-0.08,1.35-0.33,1.97c-0.25,0.62-0.64,1.19-1.14,1.64c-1.1,0.92-2.51,1.39-3.95,1.32h-5.22V47.41z M28.74,72.28
		c-0.3,0.7-0.76,1.32-1.35,1.82c-1.3,1.01-2.92,1.52-4.56,1.44h-7.91V65.12h7.09c4.75,0,7.12,1.64,7.12,4.93
		C29.18,70.81,29.04,71.58,28.74,72.28z"/>
	<g>
		<path class="st2" d="M74.06,80.8c0,0.85-0.34,1.59-1.02,2.22c-0.68,0.63-1.47,0.95-2.38,0.95c-0.85,0-1.62-0.3-2.31-0.91
			l-3.31-2.95c-1.48,1.24-3.09,2.19-4.83,2.85c-1.74,0.66-3.51,1-5.32,1c-2.27,0-4.28-0.39-6.05-1.16
			c-1.77-0.77-3.14-1.85-4.12-3.24c-0.98-1.39-1.47-2.98-1.47-4.76c0-1.87,0.47-3.53,1.4-4.98c0.94-1.45,2.42-2.76,4.44-3.94
			c-1.9-2.02-2.85-4.15-2.85-6.39c0-1.6,0.41-3.01,1.22-4.24s1.97-2.18,3.47-2.88c1.5-0.69,3.21-1.04,5.14-1.04
			c2.72,0,4.88,0.69,6.48,2.06c1.6,1.37,2.4,3.21,2.4,5.51c0,3.23-1.75,5.86-5.26,7.88l4.67,4.12c0.73-1.51,1.19-3.05,1.4-4.62
			c0.12-1,0.51-1.77,1.16-2.31c0.65-0.54,1.4-0.82,2.24-0.82c0.94,0,1.71,0.32,2.33,0.95c0.62,0.63,0.87,1.5,0.75,2.58
			c-0.3,2.96-1.3,5.82-2.99,8.56l3.67,3.22C73.68,79.21,74.06,79.98,74.06,80.8z M60.42,76.04l-6.98-6.21
			c-1.63,1.12-2.45,2.6-2.45,4.44c0,1.12,0.39,2.01,1.16,2.67c0.77,0.67,1.8,1,3.1,1C57.03,77.94,58.76,77.31,60.42,76.04z
			 M54.12,57.35c-0.51,0.53-0.77,1.23-0.77,2.11c0,0.51,0.15,1.03,0.45,1.54c0.3,0.51,0.85,1.16,1.63,1.95
			c1.18-0.57,2.02-1.16,2.51-1.77c0.5-0.6,0.75-1.28,0.75-2.04c0-0.79-0.23-1.41-0.7-1.88c-0.47-0.47-1.07-0.7-1.79-0.7
			C55.33,56.56,54.63,56.82,54.12,57.35z"/>
	</g>
	<path class="st3" d="M109.99,39.15c-3.26,0-4.89,1.59-4.89,4.76v21.42c0.03,1.31-0.19,2.61-0.66,3.83
		c-0.47,1.22-1.18,2.33-2.08,3.28c-1.95,1.92-4.57,3.01-7.31,3.03c-2.74,0.02-5.37-1.04-7.35-2.94c-0.9-0.96-1.6-2.1-2.06-3.33
		c-0.46-1.24-0.67-2.55-0.62-3.87V43.91c0-3.18-1.64-4.76-4.92-4.76c-3.26,0-4.89,1.59-4.89,4.76v21.9
		c-0.05,2.46,0.45,4.9,1.45,7.15c1,2.25,2.49,4.25,4.36,5.85h0c3.93,3.32,8.91,5.14,14.06,5.12c5.15-0.02,10.12-1.86,14.03-5.21
		c1.85-1.6,3.33-3.58,4.34-5.81c1-2.23,1.5-4.66,1.46-7.1v-21.9C114.91,40.73,113.27,39.15,109.99,39.15z"/>
</g>
</svg>
